<?xml version="1.0" encoding="UTF-8"?>
<svg id="Layer_2" data-name="Layer 2" xmlns="http://www.w3.org/2000/svg" viewBox="0 0 441.77 428.33">
  <defs>
    <style>
      .cls-1 {
        fill: #dc6d5d;
      }
    </style>
  </defs>
  <g id="Layer_2-2" data-name="Layer 2">
    <g>
      <path class="cls-1" d="M221.67,0C87.08,0,0,91.87,0,214.58s87.08,213.75,221.67,213.75,220.1-91.04,220.1-213.75S356.25,0,221.67,0ZM60.45,248.41l-1.9-4.15-2.76-3.68-1.92-4.13-1.11-4.45-1.85-4.15-1.2-4.38-.95-4.43-.47-4.44,3.28.76,3.01,3.43,3.41,3.04,3.11,3.34,3.18,3.27,3.3,3.16,3.5,2.94,3.41,3.03,3.89,2.45,3.33,3.13,3.76,2.59,3.64,2.74,3.59,2.81,3.61,2.81,3.95,2.29,4.15,1.95,3.78,2.56,4.14,1.92,3.82,2.56,4.28,1.62,4.05,2.12,4.16,1.91,4.3,1.56,4.57.72,4.38,1.22,4.21,1.95,4.5.81,4.49.87,4.55.44,4.56.34,4.55.5,4.58-.09,4.56-.3,4.51-.76,4.52-.59,4.48-.83,4.57-.49,4.94-1.91-.84-.7-5.21.8-4.49.33-4.5-.11-4.48.66-4.51-.06-4.5-.23-4.46-.67-4.38-1.09-4.56-.08-4.37-1.11-4.18-1.77-4.43-.88-4.16-1.72-4.37-1.19-4.15-1.77-3.67-2.73-4.15-1.75-4.01-2.07-3.85-2.36-3.66-2.63-3.26-3.14-3.57-2.73-3.21-3.14-3.62-2.73-3.1-3.27-2.7-3.62-2.56-3.7-3.1-3.29-2.19-3.94-2.77-3.58-1.7-4.2-2.5-3.78-1.85-4.12-1.58-4.22-1.09-4.38-1.66-4.21-.98-4.4-.14-4.54-.67-4.43-.62-4.45-.02-4.49-.41-4.5,1.06-4.45,3.96-.07,2.34,4.08,3.24,3.27,2.31,3.99,3.11,3.36,2.56,3.8,3.37,3.14,2.75,3.65,2.97,3.46,2.78,3.64,3.36,3.11,3.13,3.32,2.89,3.57,3.53,2.93,3.38,3.07,3.55,2.87,2.89,3.63,3.96,2.4,3.1,3.43,4.06,2.2,3.74,2.61,3.58,2.83,3.65,2.77,3.97,2.28,4.09,2.04,4.21,1.77,3.98,2.27,4.19,1.82,4.29,1.56,4.25,1.71,4.59.53,4.4,1.21,4.42,1.28h4.61l4.55.08,4.54.8,4.56-.49,4.53-.53,4.49-.7,4.45-.64-3.81-1.72-4.43-.66-4.41-.79-4.2-1.58-4.22-1.44-4.31-1.24-4.16-1.67-3.98-2.07-3.95-2.13-3.61-2.67-3.65-2.57-3.92-2.26-3.16-3.2-3.28-3.05-3.14-3.2-3.18-3.17-2.51-3.74-2.5-3.71-2.92-3.44-2-4.03-2.06-3.97-2.1-3.97-1.25-4.32-1.8-4.11-1.43-4.25-.41-4.5-.91-4.37-.88-4.39-.36-4.46-.32-4.48.07-4.49,1.13-4.39.15-4.49,1.38-4.28.78-4.41,1.16-4.34,2.01-4.02,2-3.99,1.52-4.25,2.32-3.84,3.94-3.69.65,5.23.44,4.51-.03,4.5-.17,4.52.22,4.51,1.09,4.41.09,4.53.53,4.49,1.69,4.25.34,4.56,1.59,4.24,1.81,4.14.99,4.43,1.52,4.25,2.2,3.96,2.17,3.95,2.23,3.9,2.37,3.81,2.31,3.85,2.19,3.96,3.01,3.36,2.95,3.39,2.53,3.76,3.29,3.09,3.2,3.16,3.34,3.02,3.21,3.19,3.82,2.43,3.86,2.32,3.72,2.52,3.74,2.51,3.79,2.46,4.14,1.82,4.25,1.51,4.03,2.06,4.33,1.27,4.31,1.29,4.22,1.68,4.51.53,4.45.72,3.21,1.53,2.18,2.34.19.17.03,3.73-1.01,3.94-2.29,3.94-2.5,3.81-3.1,3.36-2.54,3.8-3.5,2.96-2.97,3.45-3.54,2.86-3.49,2.91-3.84,2.43-3.79,2.49-3.72,2.63-4.13,1.9-3.98,2.22-4.44,1.13-4.16,1.84-4.48.83-4.35,1.22-4.37,1.2-4.44.94-4.48.82-4.54.33-4.54.29-4.55-.19-4.54.13-4.55-.03-4.49-.77-4.56-.16-4.47-.86-4.48-.76-4.43-1.02-4.31-1.48-4.36-1.24-4.39-1.17-4.24-1.62-4.28-1.53-4.11-1.93-4.14-1.86-4.21-1.75-3.9-2.35-3.69-2.68-3.9-2.33-3.73-2.59-3.52-2.87-3.4-3-3.68-2.68-3.3-3.13-2.97-3.45-3.11-3.3-2.67-3.67-2.69-3.65-2.89-3.53ZM377.86,203.84l-1.56,3.98-3.07-1.06-2.76-3.46-2.51-3.68-3.79-2.35-3.59-2.55-3.98-2.03-4.43-.58-4.4-.3-4.36.56-4.49.08-3.95,2.12-4.31,1.27-3.23,3.12-3.59,2.62-2.79,3.49-1.82,4.09.25,5.08,1.9,4.66.78,4.96,1.5,4.81-.4,4.54-.68,4.51-.84,4.48-1.26,4.38-1.5,4.3-2.31,3.97-1.13,4.47-2.53,3.81-2.23,3.95-2.5,3.78-2.41,3.84-2.9,3.49-2.67,3.67-2.74,3.63-3.37,3.07-3.12,3.29-2.84,3.6-3.82,2.56-3.52,2.87-3.28,3.15-3.39,3.05-4.1,2.09-3.63,2.72-3.48,2.96-4.01,2.16-3.61,2.81-4.26,1.71-3.96,2.22-3.93,2.28-4.22,1.7-4.07,2.01-4.1,1.94-4.24,1.61-4.08,2.05-4.48.93-4.36,1.23-4.31,1.39-4.3,1.57-4.51.66-4.55.22-4.54.51-4.55-.48-.84-1.45-.2-6.27-4.87.48-3.97,2.29-4.33,1.36-4.56.37-4.36,1.24-4.52.19-4.5.18-4.51.06-4.55.09-4.38-1.35-4.51-.43-4.5-.65-4.29-1.47-4.13-1.89-4.31-1.38-4.23-1.65-3.77-2.57-3.93-2.2-4.2-1.79-3.37-3.1-3.83-2.39-3.63-2.69-3.42-2.95-3.65-2.72-2.85-3.56-3.07-3.31-2.91-3.45-2.86-3.5-2.24-3.93-2.87-3.53-1.76-4.18-1.82-4.12,1.74.2,2.87,3.52,2.48,3.81,2.97,3.44,3.56,2.87,3.24,3.14,2.94,3.52,3.81,2.49,3.6,2.75,3.91,2.29,3.88,2.34,4.22,1.67,3.87,2.44,4.39,1.2,4.34,1.26,4.12,2.09,4.53.57,4.47.71,4.43,1.02,4.52.35,4.52.38,4.53.26,4.54.12,4.53-.33,4.53-.2,4.48-.76,4.47-.73,4.5-.51,4.49-.67,4.41-1.06,4.46-.88,4.31-1.43,4.23-1.66,4.45-1.01,4.04-2.13,4.14-1.83,4.12-1.84,4.4-1.28,3.85-2.43,3.9-2.29,3.89-2.29,3.8-2.44,3.72-2.56,3.71-2.57,3.78-2.51,3.21-3.21,3.65-2.71,3.48-2.93,2.81-3.58,3.22-3.23,2.06-4.12,2.38-3.82,2.32-3.86,2.02-4.03,1.81-4.17.69-4.49.27-4.49.49-4.5-.25-4.57-1.61-4.28-1.54-4.28-2.46-3.83-2.87-3.51-2.6-3.77-3.65-2.75-3.23-3.23-4.06-2.12,3.02-3.14,4.54-.52,4.46-.84,4.29-1.06-.17-4.84-3.47-2.2-4.23-.65-4.28.66-4.19,1.09-4.3.46-4.25.67-4.33.36-4.32-.46-4.22-.81-3.98-1.65-4.22-.94-3.85-1.94-3.25-2.85-3.02-2.96-2.78-3.16-2.35-3.55-1.05-4.12.25-4.2,4.13,1.39,3.93,2.4,4.23,1.85,4.16,1.97,4.3,1.7,4.5,1.11,4.65-.23,4.58.41,4.63-.29,4.38-1.53,4.61-1.14,4.38-1.91,3.54-3.5-3.72-1.84-3.89.31-4.38-.94-4.34-.93-4.4-.8-4.02-1.95-4.31-1.31-3.45-2.94-3.7-2.41-3.84-2.29-3.28-3.01-2.99-3.3-2.8-3.44-3-3.3-1.96-4.03-2.62-3.63-2.05-3.97-1.39-4.24-1.16-4.29-1.4-4.25-.41-4.45-.48-4.43.25-4.45.03-4.47.64-4.64,3.45,3.61,1.38,4.41,2.16,4.09,2.76,3.7,2.19,4.07,2.92,3.58,3.29,3.24,3.03,3.5,3.75,2.72,3.8,2.59,3.67,2.8,3.91,2.48,4.14,2.09,4.42,1.42,4.5,1.05,4.36,1.52,4.54.84,4.58.55,4.62-.05,4.64.47,6.8-1.17-3.06-1.45-4.24-1.36-4.17-1.4-4.12-1.53-3.99-1.88-3.88-2.14-3.82-2.31-3.25-3.05-2.69-3.56-3.2-3.09-2.9-3.4-1.65-4.19-2.69-3.62-1.43-4.23-.79-4.39-1.53-4.21-.4-4.44.29-4.44.48-4.39.38-4.47,2.21-3.92,3.12-3.8,2.57,3.42,1.69,4.23,1.24,4.35,1.38,4.35,2.36,3.89,2.84,3.53,2.56,3.76,3.65,2.73,3.18,3.32,3.94,2.32,4.17,1.85,4.2,1.74,4.38,1.24,4.36,1.24,4.21,1.83,4.45.96,4.49.76,4.3,1.55,4.45.91,4.37,1.24,4.23,1.65,4.47.98,4.15,1.86,3.92,2.3,4.08,1.98,3.77,2.52,3.54,2.84,2.98,3.42,3.42,3.03,2.66,3.72,1.17,3.72,1.56,3.55,1.45,3.64,4.52,1.37,4.39,1.48,4.04,2.27,3.57,2.95,3.63,2.84,3.25,3.3,2.23,4.07,2.1,4.04,1.8,4.18,1.26,4.4.71,4.57-.33,4.23.28,4.28Z"/>
      <path class="cls-1" d="M300.88,158.32l.82,4.04.61,4.04,1.35,3.98,3.3,2.6,4.05.93,4.27.38,4.22-.9,3.93-1.77.71-1.31-.34-.12.04-4.21-.74-4.15-1.66-3.96-3.24-2.83-3.74-2.04-4.08-1.21-4.19-.94-4.27.52-4.22.35-4.25.49.83,1.15c-.14-.09-.37-.21-.52-.3l3.39,2.09.19.17.53.33,3,2.66Z"/>
      <path class="cls-1" d="M301.09,162.08l.63,4.17,1.39,4.11,3.4,2.68,4.17.96,4.4.39,4.34-.93,4.05-1.83.74-1.35-.35-.12.04-4.34-.76-4.28-1.71-4.09-3.34-2.92-3.85-2.1-4.2-1.25-4.32-.98-4.4.54-4.35.36-4.38.5.94,1.32.23.14c.15.09.37.22.52.3l-.83-1.15,4.25-.49,4.22-.35,4.27-.52,4.19.94,4.08,1.21,3.74,2.04,3.24,2.83,1.66,3.96.74,4.15-.04,4.21.34.12-.71,1.31-3.93,1.77-4.22.9-4.27-.38-4.05-.93-3.3-2.6-1.35-3.98-.61-4.04-.82-4.04-3-2.66-.53-.33,2.89,2.58.85,4.17Z"/>
    </g>
  </g>
</svg>