<?xml version="1.0" encoding="UTF-8"?>
<svg id="Layer_2" data-name="Layer 2" xmlns="http://www.w3.org/2000/svg" viewBox="0 0 252.72 130">
  <defs>
    <style>
      .cls-1 {
        fill: #4d4d4d;
      }

      .cls-2 {
        fill: #a65262;
      }

      .cls-3 {
        fill: #dc6d5d;
      }

      .cls-4 {
        fill: #6aa0da;
      }
    </style>
  </defs>
  <g id="Layer_2-2" data-name="Layer 2">
    <g>
      <path class="cls-1" d="M.49,0h47.38v15.14h-29.41v10.06h24.34v13.93h-24.34v22.36H.49V0Z"/>
      <path class="cls-1" d="M44.87,41.81c0-13.24,9.55-23.31,23.39-23.31,6.88,0,12.13,2.24,16.17,5.93,5.33,4.9,7.83,12.73,7.65,21.41h-31.3c.95,5.07,3.7,8.17,8.6,8.17,2.84,0,4.9-1.12,6.11-3.27h15.74c-.95,3.96-4.04,7.83-8.34,10.58-4.04,2.58-8.43,3.7-14.02,3.7-14.36,0-23.99-9.8-23.99-23.22ZM60.78,37.25h15.14c-.69-4.9-3.44-7.83-7.31-7.83-4.47,0-6.97,3.01-7.83,7.83Z"/>
      <path class="cls-1" d="M109.94,27.19h.26c3.53-4.82,8-7.4,14.1-7.4,10.15,0,15.39,6.79,15.39,16.86v28.38h-16.25v-24.42c0-4.56-1.89-7.57-6.11-7.57s-6.62,3.61-6.62,8.34v23.65h-16.25V21.17h15.48v6.02Z"/>
      <path class="cls-1" d="M207.94,48.98h15.96c.26,3.7,2.56,5.91,6.79,5.91,3.26,0,5.73-1.15,5.73-3.88,0-3.7-5.2-4.14-11.02-5.02-7.58-1.15-16.31-3.17-16.31-14.46,0-9.26,9.43-14.37,20.45-14.37,13.66,0,20.8,5.11,21.42,13.93h-15.69c-.44-3.35-2.91-4.06-5.64-4.06-2.47,0-4.76.97-4.76,3.26,0,2.56,4.14,3.09,9.26,3.79,8.2,1.15,18.6,3,18.6,15.51,0,10.75-9.78,15.43-22.13,15.43-13.31,0-22.57-5.73-22.65-16.04Z"/>
      <path class="cls-1" d="M0,65.03h30.53c12.56,0,23.22,5.76,23.22,18.32,0,7.05-3.61,12.04-10.06,14.96v.26c4.99,1.89,7.57,5.33,8.6,10.15,1.63,7.4.26,16.25,2.49,16.86v.95h-17.71c-1.72-1.2-1.03-8.77-2.32-14.28-1.12-4.73-3.18-7.14-8.43-7.14h-8.34v21.41H0v-61.49ZM17.97,92.29h9.63c5.16,0,8-2.24,8-6.54,0-4.04-2.58-6.62-7.74-6.62h-9.89v13.16Z"/>
      <path class="cls-2" d="M85.76,117.23l-.19-.05c-4.41,3.64-10.1,4.4-16.39,2.76-9.34-2.43-14.89-9.27-12.41-18.8,2.8-10.77,11.91-11.76,21.53-10.38,10.59,1.53,13.68,1.01,14.47-2.04.69-2.67-.02-4.99-3.93-6.01-3.91-1.02-6.51.75-7.9,4.15l-17.06-4.44c2.89-9.53,12.38-15.51,27.63-11.54,7.44,1.93,11.95,4.13,15.08,7.38,4.23,4.46,5.42,10.06,3.74,16.54l-6.32,24.31c-1.07,4.1-1.35,6.37-.07,7.72l-.2.76-17.73-4.61c-.37-1.32-.55-2.99-.23-5.76ZM89.05,104.95l1.12-4.29c-1.94.41-4.33.6-7.55.48-5.54-.22-7.56.88-8.3,3.74-.84,3.24,1.45,5.37,4.41,6.13,4.19,1.09,8.82-.25,10.33-6.07Z"/>
      <g>
        <path class="cls-3" d="M215.21,69.67c-18.58,0-30.61,12.69-30.61,29.63s12.02,29.51,30.61,29.51,30.39-12.57,30.39-29.51-11.81-29.63-30.39-29.63ZM192.95,103.97l-.26-.57-.38-.51-.27-.57-.15-.62-.26-.57-.17-.6-.13-.61-.07-.61.45.11.42.47.47.42.43.46.44.45.46.44.48.41.47.42.54.34.46.43.52.36.5.38.5.39.5.39.55.32.57.27.52.35.57.26.53.35.59.22.56.29.57.26.59.21.63.1.6.17.58.27.62.11.62.12.63.06.63.05.63.07h.63s.63-.05.63-.05l.62-.1.62-.08.62-.11.63-.07.68-.26-.12-.1-.72.11-.62.05h-.62s-.62.08-.62.08h-.62s-.62-.04-.62-.04l-.62-.09-.61-.15h-.63s-.6-.17-.6-.17l-.58-.24-.61-.12-.57-.24-.6-.16-.57-.24-.51-.38-.57-.24-.55-.29-.53-.33-.51-.36-.45-.43-.49-.38-.44-.43-.5-.38-.43-.45-.37-.5-.35-.51-.43-.45-.3-.54-.38-.49-.23-.58-.35-.52-.25-.57-.22-.58-.15-.6-.23-.58-.14-.61-.02-.63-.09-.61-.09-.61v-.62s-.06-.62-.06-.62l.15-.61h.55s.32.55.32.55l.45.45.32.55.43.46.35.53.47.43.38.5.41.48.38.5.46.43.43.46.4.49.49.4.47.42.49.4.4.5.55.33.43.47.56.3.52.36.49.39.5.38.55.31.57.28.58.24.55.31.58.25.59.22.59.24.63.07.61.17.61.18h1.26s.63.12.63.12l.63-.07.62-.07.62-.1.61-.09-.53-.24-.61-.09-.61-.11-.58-.22-.58-.2-.6-.17-.57-.23-.55-.29-.54-.29-.5-.37-.5-.36-.54-.31-.44-.44-.45-.42-.43-.44-.44-.44-.35-.52-.35-.51-.4-.48-.28-.56-.28-.55-.29-.55-.17-.6-.25-.57-.2-.59-.06-.62-.13-.6-.12-.61-.05-.62-.04-.62v-.62s.17-.61.17-.61l.02-.62.19-.59.11-.61.16-.6.28-.55.28-.55.21-.59.32-.53.54-.51.09.72.06.62v.62s-.03.62-.03.62l.03.62.15.61v.63s.09.62.09.62l.23.59.05.63.22.59.25.57.14.61.21.59.3.55.3.54.31.54.33.53.32.53.3.55.42.46.41.47.35.52.45.43.44.44.46.42.44.44.53.34.53.32.51.35.52.35.52.34.57.25.59.21.56.28.6.18.6.18.58.23.62.07.61.1.44.21.3.32.03.02v.52s-.13.54-.13.54l-.32.54-.35.53-.43.46-.35.52-.48.41-.41.48-.49.39-.48.4-.53.34-.52.34-.51.36-.57.26-.55.31-.61.16-.57.25-.62.11-.6.17-.6.17-.61.13-.62.11-.63.05-.63.04-.63-.03-.63.02h-.63s-.62-.11-.62-.11l-.63-.02-.62-.12-.62-.1-.61-.14-.59-.2-.6-.17-.61-.16-.59-.22-.59-.21-.57-.27-.57-.26-.58-.24-.54-.32-.51-.37-.54-.32-.51-.36-.49-.4-.47-.41-.51-.37-.46-.43-.41-.48-.43-.46-.37-.51-.37-.5-.4-.49ZM236.78,97.82l-.21.55-.42-.15-.38-.48-.35-.51-.52-.32-.5-.35-.55-.28-.61-.08-.61-.04-.6.08h-.62s-.55.3-.55.3l-.59.18-.45.43-.5.36-.39.48-.25.56.03.7.26.64.11.68.21.66-.05.63-.09.62-.12.62-.17.61-.21.59-.32.55-.16.62-.35.53-.31.55-.35.52-.33.53-.4.48-.37.51-.38.5-.47.42-.43.45-.39.5-.53.35-.49.4-.45.44-.47.42-.57.29-.5.38-.48.41-.55.3-.5.39-.59.24-.55.31-.54.31-.58.23-.56.28-.57.27-.59.22-.56.28-.62.13-.6.17-.6.19-.59.22-.62.09-.63.03-.63.07-.63-.07-.12-.2-.03-.87-.67.07-.55.32-.6.19-.63.05-.6.17-.62.03-.62.03h-.62s-.63.02-.63.02l-.6-.19-.62-.06-.62-.09-.59-.2-.57-.26-.6-.19-.58-.23-.52-.36-.54-.3-.58-.25-.46-.43-.53-.33-.5-.37-.47-.41-.5-.38-.39-.49-.42-.46-.4-.48-.4-.48-.31-.54-.4-.49-.24-.58-.25-.57.24.03.4.49.34.53.41.47.49.4.45.43.41.49.53.34.5.38.54.32.54.32.58.23.53.34.61.17.6.17.57.29.63.08.62.1.61.14.62.05.62.05.63.04.63.02.63-.05.63-.03.62-.1.62-.1.62-.07.62-.09.61-.15.62-.12.59-.2.58-.23.61-.14.56-.29.57-.25.57-.25.61-.18.53-.34.54-.32.54-.32.52-.34.51-.35.51-.35.52-.35.44-.44.5-.37.48-.4.39-.49.44-.45.28-.57.33-.53.32-.53.28-.56.25-.58.1-.62.04-.62.07-.62-.04-.63-.22-.59-.21-.59-.34-.53-.4-.48-.36-.52-.5-.38-.45-.45-.56-.29.42-.43.63-.07.62-.12.59-.15-.02-.67-.48-.3-.58-.09-.59.09-.58.15-.59.06-.59.09-.6.05-.6-.06-.58-.11-.55-.23-.58-.13-.53-.27-.45-.39-.42-.41-.38-.44-.32-.49-.14-.57.03-.58.57.19.54.33.58.26.57.27.59.24.62.15.64-.03.63.06.64-.04.6-.21.64-.16.6-.26.49-.48-.51-.25-.54.04-.6-.13-.6-.13-.61-.11-.56-.27-.59-.18-.48-.41-.51-.33-.53-.32-.45-.42-.41-.46-.39-.48-.41-.46-.27-.56-.36-.5-.28-.55-.19-.59-.16-.59-.19-.59-.06-.61-.07-.61.03-.61v-.62s.09-.64.09-.64l.48.5.19.61.3.56.38.51.3.56.4.49.45.45.42.48.52.38.53.36.51.39.54.34.57.29.61.2.62.15.6.21.63.12.63.08h.64s.64.06.64.06l.94-.16-.42-.2-.58-.19-.58-.19-.57-.21-.55-.26-.54-.3-.53-.32-.45-.42-.37-.49-.44-.43-.4-.47-.23-.58-.37-.5-.2-.58-.11-.61-.21-.58-.06-.61.04-.61.07-.61.05-.62.31-.54.43-.53.36.47.23.58.17.6.19.6.33.54.39.49.35.52.5.38.44.46.54.32.58.26.58.24.6.17.6.17.58.25.61.13.62.1.59.21.62.13.6.17.58.23.62.14.57.26.54.32.56.27.52.35.49.39.41.47.47.42.37.51.16.51.22.49.2.5.62.19.61.2.56.31.49.41.5.39.45.46.31.56.29.56.25.58.17.61.1.63-.04.58.04.59Z"/>
        <path class="cls-3" d="M226.15,91.53l.11.56.08.56.19.55.46.36.56.13.59.05.58-.12.54-.24.1-.18-.05-.02v-.58s-.1-.57-.1-.57l-.23-.55-.45-.39-.52-.28-.56-.17-.58-.13-.59.07-.58.05-.59.07.11.16s-.05-.03-.07-.04l.47.29.03.02.07.05.41.37Z"/>
        <path class="cls-3" d="M226.18,92.05l.09.58.19.57.47.37.58.13.61.05.6-.13.56-.25.1-.19-.05-.02v-.6s-.1-.59-.1-.59l-.24-.56-.46-.4-.53-.29-.58-.17-.6-.13-.61.07-.6.05-.6.07.13.18.03.02s.05.03.07.04l-.11-.16.59-.07.58-.05.59-.07.58.13.56.17.52.28.45.39.23.55.1.57v.58s.04.02.04.02l-.1.18-.54.24-.58.12-.59-.05-.56-.13-.46-.36-.19-.55-.08-.56-.11-.56-.41-.37-.07-.05.4.36.12.58Z"/>
      </g>
      <path class="cls-1" d="M144.16,89.32h-.26c-2.84-3.69-5.93-6.02-12.21-6.02-11.7,0-19.61,9.46-19.61,23.22,0,15.14,8.43,23.48,19.78,23.48,5.42,0,10.06-2.66,12.9-7.57h.17v6.11h15.48v-61.08h0V21.27h-16.26v68.06ZM136.51,117.7c-4.82,0-7.92-4.73-7.92-11.43s3.19-11.27,7.92-11.27,8.08,4.99,8.08,11.27-3.27,11.43-8.08,11.43Z"/>
      <polygon class="cls-1" points="210.12 65.17 191.72 65.17 182.95 49.43 179.6 53.13 179.6 65.17 179.59 65.17 179.59 128.51 163.6 128.51 163.6 21.24 179.6 21.24 179.6 34.38 190.17 21.31 208.4 21.31 193.78 37.48 210.12 65.17"/>
      <rect class="cls-4" x="144.59" width="64.01" height="15.18"/>
    </g>
  </g>
</svg>