<?xml version="1.0" encoding="UTF-8"?>
<svg id="Layer_2" data-name="Layer 2" xmlns="http://www.w3.org/2000/svg" viewBox="0 0 938.54 558.7">
  <defs>
    <style>
      .cls-1 {
        fill: #f9e7d4;
      }

      .cls-2 {
        fill: #343435;
      }

      .cls-3 {
        fill: #fff;
      }

      .cls-4 {
        fill: #008cf0;
      }

      .cls-5 {
        fill: #a65262;
      }

      .cls-6 {
        fill: #d5a487;
      }
    </style>
  </defs>
  <g id="Layer_2-2" data-name="Layer 2">
    <g>
      <g>
        <path class="cls-6" d="M22.34,433.61h40.93c2.18,5.88,7.84,12.19,19.16,12.19,14.59,0,23.95-10.23,25.04-31.79h-.44c-7.4,7.18-17.63,12.84-32.22,12.84-29.83,0-55.52-20.68-55.52-53.12s26.56-53.99,64.01-53.99c17.42,0,33.53,5.88,44.19,14.59,16.11,13.06,22.86,34.18,22.86,63.13,0,22.42-5.44,43.98-17.42,57.91-11.76,13.5-27.65,20.03-49.64,20.03-33.09,0-55.95-16.33-60.96-41.8ZM106.81,373.74c0-12.84-9.36-22.86-23.08-22.86s-23.08,10.01-23.08,22.86,9.14,22.86,23.08,22.86,23.08-10.01,23.08-22.86Z"/>
        <path class="cls-2" d="M228.28,438.4h-70.1v-35.49l70.32-81.42h42.02v84.9h20.46v32h-20.46v33.53h-42.23v-33.53ZM189.53,406.4h38.75v-44.63h-.44l-38.32,44.19v.44Z"/>
        <path class="cls-4" d="M300.55,430.35h42.45v41.58h-42.45v-41.58Z"/>
        <path class="cls-5" d="M417.68,360.24v-.44h-69.67v-37.01h114.51v32.22c-25.47,25.47-48.11,68.8-48.98,116.91h-44.63c2.18-53.56,28.96-92.09,48.77-111.68Z"/>
      </g>
      <g>
        <g>
          <path class="cls-2" d="M938.04,204.55c.02,1.01-.52,1.92-1.89,2.58-7.05,3.54-10.16,9.25-19.4,13.86-7.25,3.63-11.08,10.55-11.08,19.4,0,2.62-.52,6.59-1.03,10.59-.58.17-1.17.35-1.73.49-6.82,1.71-13.39,1.61-18.02,2.78-4.57,1.13-2.76,14.63-2.76,19.4,0,6.43-11.17,5.71-17.02,9.06-.35.19-.68.41-.99.64-7.03,5.27-3.94,7.33-9.7-4.16-6.26-12.52-6.72-7.13-15.24,1.38-3.79,3.79-14.28,3.21-18,6.92-8.28,8.28-15.31,3.05-18.02,13.86-2.45,9.81-4.29,10.3-12.48,4.16-7.97-5.99-2.57,12.65-1.38,13.86,6.01,6.01,7.46,4.82,5.54,12.46-1.79,7.15-6.92,4.86-6.92,13.86,0,10.57-3.25,5.42-13.86,2.76-5.83-1.46,1.3-12.61-1.38-18-3.28-6.57-5.54,16.95-5.54,19.4,0,6.43-13.47,2.37-18.02,6.92-4.02,4.04-2.29-13.56,0-16.62,4.98-6.65-2.78-9.72-8.3-15.24-8.16-8.16-12.53,5.32-11.1,11.08,1.38,5.52,9.08,7.11-2.76,4.16-9.39-2.35-10.05-7.09-18.01-11.08-8.82-4.43-2.88,13.6-2.76,13.84,1.63,3.26,7.15,8.76,9.7,13.86,2.95,5.91,5.13,7.87-4.16,5.54-10.63-2.66-5.31-14.17-13.86-2.76-.68.91-1.59,1.13-2.6.91-.29-.95-.78-2.14-1.55-3.69-4.43-8.88-12.81-3.44-6.92-15.24,4.22-8.43,2.25-10.75-1.38-18.02-4.86-9.7.76-14.13,2.76-22.15,1.24-4.94-20.58-.39-22.15,0-9,2.25-17.14-2.76-26.31-2.76-1.87,0-3.52-.78-5.05-1.94-.95-5.11-4.28-12.79-.49-14.69,3.4-1.69-5.46-8.38-2.78-11.08,4.06-4.06,13.27-.82,18.02-5.54,7.97-7.97.27-11.85-9.7-13.86-8.63-1.71,2.57-10.28,4.16-11.08,6.02-3.01,11.19-5.42,2.76-13.86-4.41-4.41-5.48-14.98-6.92-20.77-1.81-7.19,5.38-11.85,6.92-18,2.31-9.25,1.26-12.34,6.92-18.02,4.24-4.24,8.9-4.74,12.48-8.32,4.35-4.33,12.52-6.94,18-8.3,3.11-.78.02-3.11-3.69-5.97,6.67-1.5,13.39-2.33,17.55-7.89,3.61-4.82,13.86-13.25,13.86-4.16s-9.08,16.36-8.32,19.4c2.04,8.14,9.45,6.35,16.64,2.78,7.35-3.67,12.96,2.97,19.38,1.38,8.2-2.06,7.4-6.06,9.7-15.24,1.01-4.02,12.48-15.37,12.48-6.92,0,3.07-8.36,18.68-6.94,19.38,7.09,3.54,9.85-4.1,15.24-2.76,6.55,1.63,5.32,4.31,12.48,9.7,12.73,9.54,9.76-6.08,12.46-5.54,16.67,3.32,9.62-7.25,13.86-8.32,5.5-1.38,14.44-4.74,18.02-8.32,1.67-1.67,22.47-8.14,20.78-1.38-2.08,8.32-3.15,13.95,8.3,11.08,9.87-2.47,9.11,1.09,15.24,4.16,6.37,3.19,6.04,7.42,11.1,12.48,4.57,4.57,11.02,6.84,15.24,12.46,9.25,12.34,7.33,1.83,11.08,2.78,7.89,1.96,13.72,5.42,19.4,11.08,1.07,1.09,10.14,7.13,10.18,11.25Z"/>
          <path class="cls-3" d="M717.05,363.74c-1.1,0-2.79-.32-5.4-.97-4.89-1.23-6.54-4.21-7.62-6.19-.44-.79-.82-1.48-1.16-1.51,0,0-.02,0-.03,0-.85,0-2.86,2.54-4.52,4.75-.74.99-1.82,1.38-3.11,1.1l-.29-.06-.09-.28c-.3-.99-.8-2.17-1.52-3.62-1.69-3.39-3.98-4.6-5.81-5.57-3.2-1.69-4.7-2.91-1.11-10.11,3.75-7.5,2.51-9.94-.5-15.83-.28-.55-.57-1.13-.88-1.74-3.56-7.11-1.61-11.58.45-16.31.84-1.92,1.7-3.91,2.27-6.19.08-.33.03-.57-.18-.78-2.3-2.31-17.65.46-21.37,1.38-5.4,1.35-10.57.13-15.58-1.06-3.5-.83-7.13-1.69-10.86-1.69-1.79,0-3.54-.67-5.36-2.04l-.15-.12-.04-.19c-.22-1.17-.56-2.47-.92-3.85-1.2-4.57-2.57-9.74.7-11.38.36-.18.45-.38.48-.51.23-.84-.86-2.49-1.81-3.95-1.5-2.29-3.2-4.89-1.58-6.52,2.09-2.08,5.29-2.35,8.68-2.63,3.44-.29,7-.58,9.33-2.91,2.56-2.56,3.57-4.79,3.01-6.64-.83-2.73-5.02-4.88-12.45-6.37-2.21-.44-3.42-1.37-3.61-2.76-.48-3.56,6.5-8.69,7.64-9.26l.24-.12c3.35-1.67,6.24-3.12,6.62-5.44.31-1.89-1.08-4.34-4.23-7.49-3.53-3.53-4.96-10.75-6.1-16.55-.32-1.63-.63-3.17-.95-4.46-1.17-4.65,1.23-8.26,3.55-11.76,1.44-2.17,2.8-4.21,3.36-6.48.6-2.41.97-4.38,1.3-6.13.92-4.88,1.47-7.82,5.75-12.12,2.26-2.26,4.61-3.47,6.88-4.64,2.02-1.04,3.94-2.02,5.59-3.68,4.32-4.3,12.3-6.96,18.23-8.43.52-.13.85-.32.89-.5.17-.79-2.49-2.83-4.62-4.47l-1-.77,1.04-.23c.76-.17,1.51-.33,2.27-.49,5.87-1.25,11.42-2.43,14.99-7.21,2.68-3.58,9.2-9.39,12.63-8.25,1.41.47,2.13,1.95,2.13,4.39,0,5.54-3.33,10.47-5.75,14.07-1.52,2.25-2.83,4.2-2.58,5.21.62,2.48,1.75,4.07,3.45,4.85,2.67,1.23,6.75.45,12.47-2.4,4.31-2.16,8-.93,11.57.26,2.69.9,5.23,1.75,7.91,1.08,6.46-1.62,7.05-4.4,8.34-10.5.27-1.29.58-2.76.99-4.37.77-3.05,7.67-10.8,11.35-10.33.96.12,2.11.83,2.11,3.54,0,1.54-1.79,5.63-3.69,9.96-1.5,3.41-3.53,8.06-3.42,9.02,3.71,1.8,6.06.38,8.55-1.12,1.93-1.16,3.93-2.37,6.47-1.74,4.02,1,5.29,2.46,7.05,4.49,1.21,1.39,2.72,3.12,5.61,5.3,3.29,2.46,5.76,3.42,7.36,2.82,1.78-.66,2.36-3.21,2.82-5.25.42-1.86.77-3.46,2.08-3.2,4.84.96,8.01.84,9.71-.39,1.39-1,1.59-2.63,1.79-4.2.2-1.62.41-3.29,2.14-3.73,4.95-1.24,14.16-4.56,17.78-8.19,1.46-1.46,16.17-6.3,20.46-3.87.76.43,1.58,1.29,1.16,2.97-1.25,4.99-2,8.64-.39,10.25,1.21,1.21,3.85,1.28,8.08.22,7.25-1.81,9-.45,11.65,1.61,1.03.8,2.2,1.71,3.93,2.58,3.96,1.98,5.46,4.43,7.05,7.02,1.08,1.76,2.2,3.58,4.17,5.55s4.1,3.37,6.43,4.94c3.13,2.1,6.37,4.27,8.85,7.58,2.91,3.88,4.99,5.85,6.19,5.85.01,0,.03,0,.04,0,.59-.02.97-.55,1.53-1.43.64-1,1.42-2.24,3.04-1.83,7.83,1.95,13.69,5.3,19.62,11.21.19.2.74.62,1.42,1.15,3.1,2.42,8.88,6.91,8.91,10.45.02.9-.35,2.16-2.17,3.04-3.22,1.62-5.64,3.72-8.2,5.95-3.05,2.66-6.21,5.41-11.2,7.9-6.96,3.49-10.8,10.22-10.8,18.95,0,2.49-.46,6.1-.94,9.91l-.13,1.07-.31.09c-.59.18-1.18.36-1.75.49-3.76.94-7.48,1.34-10.76,1.7-2.67.29-5.19.56-7.25,1.08-3.3.81-2.81,9.93-2.52,15.37.08,1.41.14,2.62.14,3.54,0,4.56-5.07,5.82-9.97,7.03-2.61.65-5.3,1.32-7.3,2.46-.34.19-.65.39-.94.61-1.58,1.18-2.64,2.2-3.41,2.94-1.01.97-1.57,1.5-2.25,1.37-.8-.15-1.23-1.09-2.39-3.61-.56-1.23-1.34-2.92-2.4-5.03-2.44-4.88-3.96-6.94-5.26-7.1-1.28-.15-2.73,1.5-4.93,4.02-1.19,1.36-2.54,2.9-4.24,4.6-2.01,2.01-5.73,2.83-9.33,3.64-3.4.76-6.92,1.54-8.67,3.28-3.64,3.64-7.13,4.76-9.93,5.66-3.76,1.2-6.48,2.07-7.95,7.97-1.19,4.76-2.28,7.66-4.34,8.39-2.08.73-4.84-.89-8.92-3.95-.99-.75-2.31-1.49-2.91-.81-1.91,2.15,1.46,13.15,2.19,13.91,1.25,1.25,2.31,2.19,3.17,2.96,3.45,3.07,4.05,3.84,2.5,9.97-.82,3.28-2.36,4.7-3.71,5.96-1.71,1.58-3.19,2.95-3.19,7.78,0,3.91-.43,5.73-1.55,6.49-1.27.87-3.13.16-5.93-.93-1.86-.72-4.17-1.61-6.99-2.32-3.73-.93-2.83-5.25-1.97-9.43.67-3.25,1.37-6.61.26-8.82-.38-.76-.66-.89-.72-.87-1.94.46-3.87,16.72-3.87,20.05,0,4.02-4.6,4.41-9.05,4.78-3.55.29-7.21.6-9.11,2.5-1.09,1.09-1.84.75-2.2.44-2.3-2-.42-15.23,1.45-17.71,3.52-4.71.3-7.34-4.16-11-1.37-1.12-2.78-2.27-4.09-3.58-2.32-2.32-4.43-2.97-6.26-1.93-3.45,1.95-4.89,8.98-4,12.54.53,2.11,2.04,3.62,2.95,4.52.63.62.97.97.72,1.41-.3.53-.57.46-5.06-.66l-1.98-.5c-5.6-1.4-8.18-3.66-10.91-6.04-1.94-1.69-3.94-3.44-7.2-5.07-1.51-.76-2.6-.85-3.23-.27-2.36,2.16.75,12.43,1.16,13.46.69,1.38,2.21,3.3,3.81,5.33,2.08,2.63,4.44,5.62,5.87,8.5.36.73.72,1.4,1.04,2.01,1.24,2.35,1.98,3.76,1.3,4.64-.3.38-.8.58-1.66.58ZM702.83,354.06s.07,0,.1,0c.89.06,1.37.93,1.97,2.02,1,1.83,2.52,4.58,6.99,5.7,3.67.92,5.7,1.17,6.03.75.29-.37-.57-1.99-1.39-3.55-.32-.61-.68-1.29-1.05-2.03-1.39-2.78-3.71-5.73-5.76-8.32-1.71-2.17-3.18-4.04-3.93-5.53-.05-.1-3.96-11.59-1.01-14.54.97-.97,2.46-.95,4.44.04,3.37,1.69,5.43,3.48,7.41,5.21,2.76,2.41,5.14,4.48,10.5,5.83l1.98.5c1.4.35,2.51.63,3.25.79-.94-.94-2.51-2.58-3.08-4.84-.96-3.83.54-11.42,4.48-13.65,1.56-.88,4.12-1.24,7.46,2.1,1.27,1.27,2.67,2.42,4.02,3.52,4.33,3.55,8.43,6.9,4.33,12.37-1.96,2.61-3.17,14.99-1.59,16.36.19.17.56-.12.84-.39,2.16-2.16,6.01-2.48,9.74-2.79,5.06-.42,8.13-.88,8.13-3.78,0-.2,1.3-20.23,4.64-21.02.68-.16,1.3.31,1.85,1.4,1.26,2.53.53,6.06-.18,9.47-.97,4.71-1.38,7.61,1.23,8.26,2.89.72,5.23,1.63,7.11,2.36,2.42.94,4.18,1.61,5.01,1.04.77-.53,1.12-2.28,1.12-5.67,0-5.27,1.71-6.84,3.51-8.51,1.32-1.21,2.67-2.47,3.42-5.46,1.45-5.74,1.03-6.11-2.2-8.98-.87-.77-1.94-1.73-3.21-3-1.04-1.05-4.57-12.61-2.24-15.27.89-1.02,2.33-.8,4.27.66,3.71,2.78,6.34,4.39,7.99,3.81,1.63-.58,2.66-3.49,3.7-7.69,1.61-6.44,4.86-7.48,8.62-8.68,2.84-.91,6.06-1.94,9.53-5.41,1.95-1.95,5.61-2.76,9.16-3.55,3.46-.77,7.04-1.56,8.84-3.37,1.67-1.67,3.01-3.2,4.19-4.55,2.42-2.76,4.02-4.58,5.81-4.35,1.74.22,3.32,2.23,6.03,7.65,1.07,2.13,1.84,3.83,2.41,5.07.74,1.6,1.37,2.99,1.66,3.04.21.06.81-.57,1.37-1.11.79-.76,1.88-1.8,3.5-3.02.33-.24.68-.47,1.05-.68,2.11-1.21,4.88-1.89,7.55-2.55,4.74-1.17,9.22-2.28,9.22-6.06,0-.89-.06-2.09-.14-3.49-.35-6.49-.82-15.38,3.28-16.39,2.13-.54,4.68-.81,7.39-1.1,3.25-.35,6.93-.75,10.63-1.67.46-.11.93-.25,1.4-.39l.05-.42c.48-3.78.93-7.36.93-9.79,0-9.12,4.03-16.17,11.35-19.84,4.88-2.43,7.98-5.14,10.98-7.76,2.61-2.27,5.07-4.42,8.41-6.1,1.1-.54,1.63-1.23,1.61-2.13h0c-.03-3.06-5.77-7.53-8.53-9.68-.74-.58-1.28-.99-1.51-1.24-5.79-5.77-11.52-9.04-19.16-10.94-.86-.22-1.29.36-1.95,1.4-.55.86-1.18,1.84-2.33,1.89-1.64.06-3.79-1.87-7.07-6.25-2.38-3.17-5.55-5.29-8.61-7.34-2.27-1.52-4.61-3.09-6.58-5.06s-3.26-4.01-4.32-5.74c-1.58-2.57-2.95-4.79-6.65-6.65-1.82-.91-3.03-1.86-4.1-2.69-2.5-1.95-4.02-3.13-10.79-1.43-4.66,1.17-7.53,1.02-9.03-.48-1.99-1.98-1.2-5.89.13-11.2.22-.89.01-1.46-.68-1.85-3.84-2.18-18.09,2.54-19.26,3.71-3.79,3.79-12.99,7.13-18.25,8.45-1.01.25-1.18,1.21-1.39,2.88-.2,1.62-.45,3.63-2.2,4.89-1.93,1.39-5.37,1.57-10.49.55-.36-.02-.68,1.44-.9,2.44-.51,2.28-1.15,5.13-3.45,5.97-1.97.72-4.68-.24-8.31-2.96-2.97-2.24-4.52-4.01-5.76-5.44-1.76-2.02-2.82-3.25-6.54-4.17-2.13-.53-3.87.51-5.71,1.62-2.51,1.51-5.36,3.23-9.62,1.1-1.04-.51-.33-2.53,3.06-10.26,1.69-3.85,3.6-8.22,3.6-9.56,0-1.59-.42-2.44-1.23-2.54-2.9-.36-9.55,6.75-10.26,9.58-.4,1.59-.71,3.05-.98,4.34-1.3,6.12-2.01,9.49-9.08,11.26-2.96.73-5.76-.2-8.47-1.1-3.38-1.12-6.87-2.29-10.81-.32-6.01,2.99-10.38,3.78-13.34,2.41-1.97-.91-3.31-2.76-4-5.52-.36-1.44.93-3.36,2.72-6.01,2.36-3.49,5.58-8.27,5.58-13.51,0-1.96-.49-3.12-1.45-3.44-2.67-.88-8.71,4.16-11.51,7.9-3.8,5.08-9.52,6.3-15.58,7.59-.4.09-.81.17-1.21.26,2.93,2.27,4.55,3.68,4.29,4.93-.19.9-1.27,1.17-1.63,1.26-5.81,1.44-13.61,4.03-17.76,8.17-1.77,1.77-3.75,2.78-5.84,3.86-2.2,1.13-4.48,2.3-6.63,4.46-4.07,4.08-4.57,6.75-5.48,11.6-.33,1.76-.7,3.75-1.31,6.18-.61,2.44-2.08,4.65-3.5,6.79-2.3,3.47-4.48,6.74-3.42,10.96.32,1.31.63,2.86.96,4.5,1.12,5.67,2.51,12.72,5.83,16.04s4.88,6.1,4.51,8.36c-.46,2.83-3.71,4.46-7.16,6.18l-.24.12c-1.21.6-7.48,5.43-7.1,8.23.12.92,1.07,1.57,2.82,1.91,7.94,1.59,12.26,3.9,13.21,7.06.67,2.23-.42,4.8-3.26,7.64-2.59,2.58-6.34,2.89-9.96,3.19-3.21.27-6.23.52-8.06,2.34-1.05,1.06.35,3.2,1.71,5.27,1.17,1.79,2.28,3.48,1.94,4.75-.13.5-.47.88-1,1.15-2.54,1.28-1.29,6.04-.18,10.24.35,1.32.68,2.57.9,3.72,1.58,1.16,3.08,1.73,4.6,1.73,3.85,0,7.53.87,11.09,1.71,5.11,1.21,9.94,2.36,15.1,1.06.19-.05,19.18-4.27,22.32-1.12.46.46.61,1.06.44,1.72-.59,2.36-1.47,4.38-2.32,6.34-2.05,4.71-3.82,8.78-.47,15.47.3.61.6,1.19.88,1.73,3.07,6.03,4.48,8.78.5,16.73-3.33,6.66-2.07,7.33.68,8.78,1.86.98,4.4,2.33,6.24,6.01.68,1.36,1.17,2.5,1.49,3.47.78.1,1.36-.15,1.82-.77,2.89-3.86,4.22-5.16,5.32-5.16ZM754.92,155.44s0,0,0,0c0,0,0,0,0,0Z"/>
        </g>
        <g>
          <path class="cls-2" d="M708.32,465.39c-14.05-3.52-7.07,4.88-15.24,6.92-5.97,1.5-14.61,2.6-9.68,12.48,2.66,5.32,11.76,18.56,11.93,19.08-.08-.08-.35-.41-.85-1.09.56,2.29.91,4.63,1.38,6.94,2.22,11.04-2,22.56-8.32,30.47-6.24,7.79-5.03,15.45-15.24,18l-21.63-4.61-69.81-14.89c.14-2.2-.82-4.1-4.14-5.44-10.96-4.37-6.18-5.69-4.14-13.84,1.71-6.88-6.35-10.51-9.7-13.86-1.83-1.83-15.96-12.42-13.86-16.62,1.75-3.5,4.29-13.72,0-18.02-4.82-4.82-3.6-21.05-9.7-18-5.44,2.7-13.29,8.03-18-1.4-3.5-6.96-13.8-10.75-15.24-18-1.36-6.8-.31-17.26-2.78-22.17-3.03-6.04-4.84-11.16-2.78-19.4,3.23-12.87-9.68-11.43-9.68-22.15,0-11.56-5.79-11.56-9.7-19.4-.74-1.44-1.34-3.23-1.81-5.13,7.5.84,10.71-4.35,12.88-8.71,3.85-7.7,4.04-10.38,12.46-12.48,5.34-1.34,17.57-.12,23.55,1.38,3.3.84,4.92,11.47,9.7,13.86,9,4.51,15.82-10.47,19.4-15.24,2.53-3.38,17.24,4.16,19.38,4.16,7.05,0-7.93-11.7-11.08-18.02-1.48-2.97,14.59-7.99,15.24-8.3,5.83-2.92,7.35-4.16,16.64-4.16,1.57,0,3.44.29,5.4.74,6.65,1.57,14.46,5.29,16.75,7.58,3.52,3.5,8.88-5.56,13.86-5.56,2.24,0,2.39-2,1.87-4.7,1.54,1.19,3.19,1.94,5.05,1.94,9.19,0,17.32,5.01,26.31,2.76,1.59-.39,23.4-4.92,22.17,0-2.02,8.03-7.64,12.46-2.78,22.17,3.63,7.27,5.6,9.56,1.38,18-5.89,11.8,2.49,6.35,6.94,15.24.78,1.55,1.24,2.74,1.54,3.69-4.35-.93-10.79-10.16-11.23-10.61-5.03-5.03-11.68,4.12-15.84,11.33,2.62,2.08,4.8,3.96,6.14,5.29,2.72,2.72,5.95,5.09,9.43,7.19-2.33,3.96-2.93,7.72-1.11,14.98,1.03,4.18,18.64,16.79,8.3,19.38-5.17,1.3-16.62,6.24-16.62,11.1,0,4.29-3.96,20.97-2.78,22.15,5.36,5.34,16.15-.47,22.17,5.54.91.91,15.63,19.84,13.84,19.4Z"/>
          <path class="cls-3" d="M672.31,558.7l-.11-.02-91.86-19.58.03-.43c.14-2.3-1.04-3.82-3.83-4.95-4.4-1.76-6.37-3.04-7.02-4.6-.61-1.45,0-2.92.86-4.95.54-1.29,1.22-2.9,1.72-4.88,1.23-4.93-2.9-8.09-6.54-10.88-1.14-.87-2.21-1.69-3.02-2.5-.31-.31-1.05-.93-1.98-1.72-7.2-6.07-13.63-12.14-11.97-15.47,1.72-3.44,4.19-13.34.09-17.44-2.14-2.14-3.1-6.23-4.02-10.18-.86-3.68-1.67-7.15-3.26-7.9-.51-.24-1.11-.18-1.84.18-.51.25-1.05.53-1.6.82-3.5,1.82-7.84,4.08-11.7,2.83-2.17-.71-3.98-2.48-5.37-5.27-1.52-3.03-4.45-5.5-7.28-7.89-3.53-2.98-7.17-6.06-8-10.23-.56-2.8-.72-6.23-.87-9.55-.22-4.75-.45-9.67-1.87-12.5-2.83-5.64-5-11.02-2.82-19.74,1.69-6.76-1.22-9.36-4.3-12.12-2.65-2.38-5.4-4.83-5.4-9.91,0-7.26-2.33-9.83-5.03-12.8-1.5-1.65-3.2-3.52-4.62-6.37-.71-1.39-1.34-3.15-1.85-5.24l-.17-.7.71.08c6.8.78,9.97-3.6,12.38-8.43.49-.99.92-1.89,1.32-2.72,2.76-5.75,3.9-8.13,11.46-10.02,5.48-1.38,17.95-.08,23.8,1.38,1.79.45,2.99,3.07,4.38,6.09,1.43,3.1,3.04,6.62,5.42,7.8,6.96,3.49,12.7-5.62,16.49-11.64.87-1.38,1.62-2.57,2.28-3.45,1.99-2.66,9.65.28,15.24,2.43,2.05.79,3.98,1.53,4.53,1.53.74,0,1.22-.14,1.33-.4.51-1.15-3.07-5.07-5.95-8.22-2.79-3.06-5.68-6.22-6.91-8.68-.19-.38-.2-.81-.02-1.23,1.01-2.47,8.75-5.39,14.49-7.38.54-.19.9-.31,1-.36.52-.26,1.02-.51,1.49-.75,4.67-2.37,6.8-3.46,15.37-3.46,1.49,0,3.3.25,5.51.75,6.96,1.65,14.71,5.43,16.99,7.71,1.55,1.54,3.52.2,6.59-2.18,2.24-1.73,4.55-3.53,6.92-3.53.57,0,.97-.15,1.22-.45.47-.57.52-1.77.16-3.66l-.25-1.3,1.05.81c1.6,1.24,3.16,1.84,4.75,1.84,3.86,0,7.54.87,11.1,1.72,5.11,1.21,9.93,2.35,15.09,1.06.19-.05,19.17-4.29,22.33-1.11.46.46.61,1.05.45,1.71-.59,2.35-1.48,4.37-2.33,6.33-2.06,4.72-3.84,8.79-.49,15.5.31.62.61,1.2.89,1.75,3.06,6.01,4.46,8.75.49,16.69-3.33,6.66-1.98,7.37.69,8.78,1.86.98,4.41,2.33,6.25,6.01.71,1.43,1.23,2.67,1.57,3.77l.25.81-.83-.18c-3.9-.84-9.23-7.81-10.98-10.1-.27-.35-.44-.58-.51-.65-1.01-1.01-2.1-1.43-3.33-1.26-3.14.42-7.11,4.6-11.5,12.12,2.4,1.92,4.52,3.74,5.84,5.05,2.52,2.52,5.58,4.85,9.33,7.12l.42.25-.25.43c-2.1,3.56-2.94,7.1-1.05,14.61.3,1.21,2.34,3.43,4.51,5.78,3.67,3.99,7.84,8.51,6.92,11.58-.38,1.25-1.55,2.14-3.49,2.62-5.67,1.43-16.24,6.33-16.24,10.61,0,1.87-.71,5.87-1.45,10.11-.81,4.61-1.92,10.92-1.45,11.72,2.43,2.42,6.15,2.39,10.1,2.35,4.32-.04,8.8-.08,12.05,3.16.16.16,14.92,18.44,14.05,19.96-.1.18-.34.36-.69.27h0c-7.94-1.99-8.75-.13-9.78,2.23-.74,1.69-1.66,3.8-5.21,4.69-.47.12-.96.23-1.46.35-3.57.85-7.61,1.81-8.89,4.53-.8,1.71-.47,3.96.99,6.89,1.82,3.65,6.71,11.06,9.62,15.49,1.86,2.83,2.27,3.45,2.34,3.66l.67,2.01-1.07-1.07c.17.85.33,1.7.48,2.54.15.81.3,1.62.46,2.44,2.41,11.99-2.77,23.81-8.42,30.88-2.14,2.67-3.36,5.27-4.54,7.78-2.19,4.65-4.08,8.67-10.96,10.39l-.11.03ZM581.38,538.3l90.92,19.38c6.33-1.62,8.03-5.24,10.19-9.81,1.15-2.45,2.46-5.22,4.67-7.98,5.51-6.89,10.56-18.41,8.22-30.06-.16-.82-.31-1.63-.46-2.45-.27-1.47-.55-2.99-.91-4.46l-.09-.37c-.36-.55-.8-1.22-1.27-1.93-2.93-4.45-7.83-11.89-9.68-15.59-1.61-3.22-1.94-5.76-1-7.76,1.48-3.16,5.77-4.18,9.56-5.08.49-.12.98-.23,1.44-.35,3.07-.77,3.82-2.47,4.54-4.12,1.28-2.93,2.7-4.73,10.23-2.97-1.74-3.27-12.39-17.17-13.6-18.39-2.95-2.94-7.21-2.9-11.34-2.87-3.98.03-8.09.07-10.84-2.67-.79-.79-.24-4.44,1.2-12.58.71-4.01,1.44-8.16,1.44-9.93,0-5.5,12.64-10.48,16.99-11.58,1.57-.39,2.51-1.05,2.78-1.94.76-2.53-3.38-7.01-6.7-10.61-2.35-2.55-4.38-4.76-4.74-6.22-1.68-6.7-1.45-10.68.92-14.93-3.64-2.23-6.62-4.53-9.1-7.01-1.36-1.34-3.59-3.26-6.1-5.25l-.34-.27.21-.37c4.7-8.15,8.89-12.51,12.45-12.98,1.53-.2,2.94.32,4.17,1.55.07.07.28.34.59.75,4,5.23,7.18,8.39,9.49,9.42-.3-.81-.69-1.69-1.18-2.68-1.7-3.39-3.99-4.6-5.82-5.57-3.21-1.69-4.71-2.91-1.12-10.11,3.75-7.49,2.51-9.92-.49-15.79-.28-.55-.58-1.14-.89-1.76-3.56-7.13-1.61-11.61.46-16.35.84-1.92,1.71-3.9,2.28-6.17.08-.32.02-.56-.18-.77-2.27-2.29-17.66.46-21.39,1.37-5.39,1.35-10.56.13-15.56-1.06-3.51-.83-7.13-1.69-10.87-1.69-1.49,0-2.92-.45-4.37-1.36.19,1.58,0,2.62-.55,3.3-.45.54-1.12.82-1.99.82-2.02,0-4.2,1.69-6.3,3.32-2.77,2.15-5.63,4.36-7.91,2.09-2.14-2.14-9.82-5.86-16.51-7.45-2.11-.48-3.89-.72-5.29-.72-8.32,0-10.25.98-14.91,3.35-.47.24-.97.49-1.5.76-.11.06-.38.15-1.11.4-8.58,2.97-13.26,5.27-13.89,6.81-.08.21-.05.33,0,.41,1.16,2.33,4,5.44,6.75,8.45,4.27,4.68,6.86,7.63,6.12,9.3-.44.99-1.8.99-2.24.99-.71,0-2.24-.58-4.89-1.59-4.69-1.8-12.54-4.82-14.08-2.77-.64.85-1.38,2.02-2.23,3.38-3.99,6.33-10.02,15.9-17.79,12-2.69-1.34-4.38-5.03-5.88-8.28-1.23-2.68-2.39-5.2-3.72-5.54-5.75-1.43-17.97-2.72-23.31-1.38-7.11,1.77-8.11,3.87-10.8,9.48-.4.83-.83,1.74-1.33,2.73-2.49,4.98-5.75,9.51-12.67,9.04.46,1.71.99,3.17,1.59,4.34,1.36,2.73,2.94,4.47,4.46,6.15,2.84,3.13,5.29,5.83,5.29,13.47,0,4.63,2.46,6.83,5.06,9.16,3.17,2.84,6.44,5.77,4.6,13.11-2.1,8.4-.1,13.39,2.74,19.05,1.51,3.02,1.73,7.82,1.97,12.9.15,3.28.31,6.68.85,9.4.76,3.82,4.11,6.66,7.66,9.66,2.91,2.46,5.91,5,7.53,8.21,1.29,2.58,2.85,4.14,4.79,4.77,3.45,1.12,7.42-.94,10.92-2.77.56-.29,1.1-.57,1.61-.83,1-.5,1.91-.56,2.71-.19,2.03.95,2.85,4.49,3.81,8.58.85,3.64,1.81,7.76,3.76,9.71,4.72,4.72,1.67,15.43.09,18.59-1.54,3.09,8.09,11.21,11.72,14.26.99.83,1.7,1.43,2.05,1.78.77.77,1.81,1.57,2.92,2.42,3.69,2.83,8.29,6.34,6.91,11.92-.52,2.06-1.21,3.7-1.77,5.02-.79,1.87-1.31,3.1-.86,4.17.52,1.24,2.45,2.45,6.47,4.06,2.99,1.21,4.46,3.01,4.47,5.5Z"/>
        </g>
        <g>
          <path class="cls-2" d="M360.32,106.2c-1.44,5.73-5.38,14.48-9.7,16.62-3.46,1.73-16.46,4.49-15.24,6.94,2.7,5.38-6.2,14.38-1.38,18,4.57,3.42,16.54,4.24,8.32,12.48-3.54,3.54-15.18,11.14-6.94,19.4,3.13,3.11,15.22,11.08,6.94,15.24-1.83.89-15.64,9.48-9.7,12.46,2.47,1.24,15.99,15.08,5.54,12.46-5.77-1.44-13.22-6.72-18.02-5.54-7.66,1.92-10.28,10.2-19.4,12.48-8.53,2.14-12.53,3.5-17.35,7.77-3.77-2.37-10.16,2.82-15.22,6.26-1.85,1.24-3.52,2.25-4.82,2.58-4.53,1.13-13.84-2.76-19.4-2.76-6.8,0-11.91-4.16-20.77-4.16-10.69,0-14.96-1.26-23.55-5.54-8.45-4.24-15.78-3.89-19.38-11.1-3.75-7.48-5.09-13.39-9.7-18-6.39-6.39-9.08-4.49-11.08,5.54-.84,4.18-8.67-4.68-12.48-2.78-2.41,1.22-5.21,18.09-5.54,19.4-1.22,4.88-17.39-7.85-18.02-8.3-4.57-3.44-11.08,2.76-16.62,4.14-4.61,1.17-6.67-16.27-11.08,1.4-2.47,9.89-17.76-2.27-19.4-5.54-7.54-15.08-11.02,1.13-12.46,6.92-1.34,5.34-6.94,6.35-6.94,16.62,0,1.44.02,2.7.02,3.91l-54.03-2.51v-6.94c0-12.22-1.4-23.65-1.4-36.01,0-9.66-2.18-22.14-.31-31.72.1-.52.19-1.03.31-1.52,2.31-9.25,5.31-24.16,11.1-31.87,6.43-8.57,15.64-13.47,22.15-22.15,4.33-5.79,6.53-8.92,11.08-18.02,3.77-7.52,9.99-14.13,16.62-20.77,2.04-2.04,12.46-11.43,16.64-8.3.93.68,2.24,1.61,3.75,2.64,4.68,3.15,11.23,7.23,14.24,8.43,7.19,2.88,16.09,7.13,20.78,8.3,11.02,2.76,8.59,9.44,18.02,0,1.19-1.19,14.3-11.08,15.24-11.08,12.77,0,11.56,6.49,20.77,11.08,6.08,3.05,8.67,4.16,18.02,4.16,8.34,0,16.23.51,23.53,4.16,3.95,1.98,8.45,6.2,16.62,4.16,12.75-3.19-1.59-9.48,4.16-15.24,7.81-7.81-.84-6.16-2.76-13.86-1.13-4.47,11.99-8.32,8.3-11.08-5.79-4.35-3.11-15.59,0-12.48,13.72,13.72,6.34,0,11.1,0,3.38,0,19.69,10.3,15.24,1.4-1.32-2.64-4.24-22.25,0-16.64,6.88,9.19,14.91,3.3,8.3,0-10.44-5.21-6.28-11.8,2.78-2.76,5.73,5.73,8.3,4.31,8.3-5.54s1.38-12.73,11.1-16.62c10.94-4.39,6.3-.14,13.84,5.54,5.09,3.81,19.14,11.21,8.32,16.62-9.11,4.55-9.7,5.17-9.7,15.24,0,11.89.14,13.78,11.08,8.32,3.26-1.63,13.86,5.62,13.86,2.76,0-5.99-7.23-17.39-6.92-18,2.33-4.7,9.46-8.75,13.84,0,2.99,5.97,1.4,9.68,1.4,18,0,1.59,1.53,3.07,3.65,4.49,5.6,3.75,15.29,7.04,11.58,10.75-.47,1.85-.04,4.2-1.4,5.54-2.62,2.62-6.92,13.41-6.92,19.4,0,9.37,12.77,8.45,11.08,15.24Z"/>
          <path class="cls-3" d="M261.44,244.03c-2.54,0-5.75-.76-8.89-1.5-3.06-.72-6.22-1.46-8.58-1.46-3.26,0-6.11-.92-9.13-1.9-3.44-1.11-7-2.26-11.64-2.26-10.81,0-15.21-1.33-23.78-5.59-2.7-1.35-5.23-2.21-7.68-3.05-5.04-1.72-9.4-3.2-11.92-8.27-1.18-2.35-2.1-4.5-2.99-6.58-1.88-4.39-3.51-8.18-6.61-11.28-2.76-2.76-4.79-3.89-6.2-3.47-1.68.51-2.93,3.21-4.03,8.75-.14.7-.46,1.16-.96,1.39-1.19.54-3.03-.51-5.15-1.73-2.36-1.35-5.03-2.89-6.63-2.09-1.19.61-2.85,6.43-4.93,17.31-.17.91-.29,1.54-.35,1.76-.17.67-.58,1.13-1.2,1.35-3.02,1.05-11.07-4.39-17.3-9.14-.15-.12-.25-.19-.29-.22-2.8-2.11-6.46-.25-10.34,1.73-1.95.99-3.96,2.02-5.86,2.49-2.05.52-3.52-1.78-4.83-3.8-.87-1.34-1.85-2.86-2.57-2.73-.67.11-1.8,1.52-3.31,7.57-.78,3.12-2.75,3.98-4.28,4.14-5.75.66-14.77-7.02-16.05-9.58-2.04-4.08-3.97-6.14-5.51-5.96-2.96.33-4.89,8.21-5.82,12l-.19.78c-.53,2.1-1.66,3.54-2.86,5.07-1.91,2.42-4.06,5.17-4.06,11.43,0,.75,0,1.45.01,2.12,0,.62,0,1.21,0,1.78v.52l-55.03-2.55v-7.42c0-6.08-.35-12.08-.7-17.88-.35-5.86-.7-11.92-.7-18.13,0-3.27-.25-6.82-.51-10.58-.51-7.3-1.04-14.85.21-21.24.1-.53.2-1.04.32-1.54.3-1.21.62-2.51.94-3.88,2.17-9.03,5.14-21.38,10.24-28.18,3.24-4.31,7.22-7.75,11.07-11.07,3.86-3.33,7.84-6.77,11.08-11.08,4.19-5.6,6.42-8.71,11.03-17.94,3.86-7.69,10.37-14.55,16.71-20.9.12-.12,12.23-12.13,17.29-8.35,1.23.9,2.49,1.79,3.73,2.63,4.98,3.35,11.29,7.24,14.15,8.38,2.42.97,5.05,2.1,7.59,3.19,5.16,2.22,10.04,4.32,13.12,5.08,3.9.98,6.17,2.45,7.82,3.52,2.96,1.92,3.85,2.5,9.72-3.38.74-.74,14.3-11.22,15.59-11.22,8.18,0,10.81,2.64,13.86,5.69,1.84,1.84,3.75,3.75,7.14,5.44,6.08,3.05,8.65,4.11,17.79,4.11,7.42,0,15.99.33,23.76,4.21.74.37,1.49.82,2.29,1.29,3.53,2.09,7.52,4.45,13.98,2.83,2.8-.7,4.4-1.57,4.9-2.68.54-1.18-.22-2.7-1.03-4.3-1.21-2.39-2.71-5.36.06-8.13,2.12-2.12,3.1-3.61,3.07-4.69-.03-.94-.84-1.67-1.88-2.6-1.47-1.32-3.29-2.95-4.08-6.09-.65-2.56,2.5-4.75,5.28-6.69,1.71-1.19,3.64-2.54,3.66-3.42,0-.08,0-.34-.46-.69-3.16-2.38-4.01-6.79-3.45-10.1.34-2.01,1.16-3.41,2.19-3.74.45-.15,1.15-.16,1.91.61,5.3,5.3,7.14,6.15,7.73,5.93.4-.15.48-1.26.54-2.16.12-1.65.28-3.92,2.47-3.92,1.17,0,3.5,1.01,6.19,2.19,3.28,1.43,8.24,3.59,9.16,2.61.15-.16.4-.74-.56-2.67-1.06-2.12-3.64-16.79-1.33-18.22.62-.38,1.36-.03,2.18,1.06,3.17,4.24,6.52,5.12,8.42,4.58.84-.24,1.38-.74,1.43-1.35.08-.83-.74-1.76-2.18-2.49-4.85-2.42-6.49-5.03-6.42-6.52.03-.7.42-1.25,1.07-1.5,1.47-.57,4.53.3,8.7,4.47,2.53,2.53,4.37,3.57,5.46,3.12,1.31-.54,1.98-3.34,1.98-8.3,0-9.85,1.42-13.08,11.41-17.08,7.19-2.89,8.03-2.2,9.82.62.82,1.29,1.94,3.06,4.5,4.98.72.54,1.64,1.16,2.62,1.83,4.28,2.91,10.15,6.89,9.89,10.83-.12,1.84-1.56,3.46-4.26,4.81-9.07,4.53-9.42,5.08-9.42,14.79,0,5.75,0,9.54,1.5,10.47,1.36.84,4.39-.37,8.85-2.6,1.85-.92,5.31.49,8.65,1.86,1.86.76,4.41,1.8,4.9,1.47.02-.01.02-.07.02-.13,0-4.01-3.39-10.62-5.42-14.57-1.47-2.87-1.65-3.26-1.45-3.65,1.29-2.6,4.26-5.42,7.71-5.42h0c1.96,0,4.76.94,7.01,5.43,2.2,4.38,1.99,7.62,1.7,12.09-.12,1.77-.25,3.77-.25,6.13,0,1.21,1.09,2.51,3.43,4.07,1.43.96,3.16,1.9,4.83,2.81,3.83,2.09,7.45,4.06,7.78,6.33.11.79-.17,1.56-.85,2.27-.12.54-.17,1.13-.22,1.75-.12,1.41-.24,2.87-1.28,3.9-2.42,2.42-6.77,12.95-6.77,19.04,0,4.62,3.22,6.54,6.34,8.4,2.89,1.73,5.62,3.36,4.72,6.95h0c-1.33,5.3-5.21,14.59-9.96,16.94-1.15.57-3.2,1.22-5.58,1.97-3.75,1.19-8.9,2.81-9.43,4.07-.04.1-.03.16,0,.22,1.36,2.71.05,6.11-1.21,9.4-1.33,3.46-2.58,6.72-.32,8.42,1.16.87,2.89,1.59,4.56,2.29,3.06,1.28,6.22,2.61,6.71,5.07.33,1.67-.62,3.58-2.89,5.87-.52.52-1.19,1.11-1.97,1.79-3.01,2.64-7.56,6.63-7.71,10.97-.07,2.04.85,4.03,2.74,5.92.51.51,1.28,1.16,2.18,1.92,3.44,2.91,8.15,6.9,7.73,10.47-.18,1.47-1.22,2.7-3.1,3.65-1.62.79-10.88,6.61-10.9,10,0,.65.39,1.16,1.2,1.57,1.74.88,10.77,9.54,9.62,12.63-.64,1.71-3.49,1-4.43.76-2.18-.54-4.6-1.63-6.95-2.68-3.91-1.75-7.96-3.57-10.82-2.86-3.53.89-5.98,3.2-8.56,5.64-2.92,2.76-5.94,5.62-10.83,6.83-8.24,2.06-12.35,3.41-17.14,7.66l-.28.25-.32-.2c-3.02-1.9-8.18,1.71-12.73,4.9-.66.46-1.31.92-1.94,1.35-1.64,1.11-3.51,2.28-4.98,2.66-.61.15-1.3.22-2.04.22ZM164.65,197.57c1.66,0,3.64,1.23,6.27,3.85,3.24,3.24,4.9,7.11,6.82,11.6.89,2.07,1.8,4.21,2.97,6.53,2.34,4.7,6.32,6.06,11.35,7.77,2.36.81,5.04,1.72,7.8,3.1,8.54,4.25,12.64,5.49,23.33,5.49,4.8,0,8.44,1.17,11.95,2.31,2.95.95,5.73,1.85,8.82,1.85,2.48,0,5.7.76,8.81,1.49,3.94.93,8.02,1.89,10.46,1.28,1.31-.33,3.09-1.46,4.66-2.51.62-.42,1.27-.88,1.93-1.34,4.66-3.27,9.92-6.96,13.51-5.12,4.84-4.21,9.04-5.58,17.3-7.65,4.63-1.16,7.56-3.92,10.38-6.59,2.69-2.54,5.22-4.93,9.01-5.89,3.19-.79,7.4,1.09,11.47,2.92,2.31,1.03,4.69,2.1,6.78,2.62,1.86.47,3.04.42,3.25-.14.82-2.19-7.12-10.37-9.13-11.39-1.45-.73-1.75-1.74-1.75-2.46.02-4.48,11.34-10.83,11.46-10.89,1.58-.79,2.41-1.73,2.55-2.87.36-3.03-4.3-6.98-7.38-9.59-.91-.77-1.7-1.44-2.24-1.97-2.09-2.1-3.11-4.34-3.03-6.67.16-4.78,4.91-8.94,8.05-11.69.77-.67,1.43-1.25,1.92-1.75,2-2,2.88-3.67,2.62-4.97-.38-1.94-3.3-3.16-6.12-4.34-1.73-.72-3.51-1.47-4.77-2.41-2.87-2.15-1.42-5.93-.01-9.58,1.18-3.08,2.41-6.27,1.25-8.59-.17-.34-.18-.71-.03-1.06.66-1.57,4.58-2.91,10.05-4.64,2.24-.71,4.36-1.38,5.44-1.91,4.21-2.09,8.05-10.78,9.44-16.29h0c.72-2.87-1.48-4.19-4.27-5.85-3.04-1.82-6.83-4.08-6.83-9.26,0-6,4.21-16.9,7.07-19.75.78-.77.88-1.98.99-3.27.06-.68.12-1.38.28-2.04l.03-.13.1-.1c.52-.52.74-1.02.67-1.53-.26-1.77-3.82-3.71-7.27-5.59-1.69-.92-3.44-1.87-4.91-2.86-1.66-1.11-3.88-2.83-3.88-4.9,0-2.39.13-4.41.25-6.19.29-4.48.48-7.44-1.59-11.58-1.59-3.19-3.71-4.88-6.11-4.88h0c-2.85,0-5.53,2.38-6.76,4.76.12.4.76,1.65,1.38,2.86,2.07,4.03,5.53,10.78,5.53,15.03,0,.53-.25.81-.47.96-.89.6-2.71-.09-5.84-1.38-2.84-1.16-6.38-2.62-7.83-1.89-5.01,2.5-8.06,3.65-9.83,2.56-1.97-1.22-1.97-5.02-1.97-11.32,0-10.41.84-11.13,9.97-15.68,2.37-1.18,3.61-2.52,3.71-3.98.23-3.37-5.37-7.17-9.45-9.94-.99-.67-1.92-1.3-2.66-1.85-2.7-2.03-3.88-3.89-4.74-5.24-1.47-2.32-1.87-2.94-8.61-.23-9.51,3.81-10.78,6.69-10.78,16.15,0,5.64-.8,8.48-2.6,9.23-1.55.64-3.64-.42-6.55-3.34-3.57-3.56-6.46-4.69-7.63-4.24-.28.11-.42.31-.44.62-.06,1.25,1.75,3.53,5.87,5.58,1.86.93,2.85,2.2,2.73,3.48-.1,1.02-.92,1.87-2.16,2.22-2.22.62-6.02-.3-9.49-4.95-.59-.79-.86-.81-.86-.81-1.26.68.38,14.26,1.71,16.92.94,1.89,1.07,3.1.4,3.81-1.31,1.38-4.92-.05-10.29-2.38-2.37-1.03-4.83-2.1-5.79-2.1-1.18,0-1.34,1.13-1.47,2.99-.1,1.36-.19,2.65-1.19,3.02-.99.37-2.75-.12-8.78-6.16-.49-.49-.8-.4-.9-.36-.53.17-1.2,1.15-1.51,2.95-.51,3.02.24,7.01,3.06,9.13.58.43.87.94.86,1.5-.02,1.39-1.91,2.71-4.09,4.23-2.51,1.75-5.36,3.74-4.88,5.63.71,2.84,2.41,4.36,3.77,5.59,1.17,1.05,2.17,1.95,2.21,3.32.04,1.39-1,3.07-3.36,5.43s-1.1,4.55.13,6.97c.92,1.82,1.79,3.54,1.05,5.17-.65,1.42-2.42,2.44-5.57,3.23-6.85,1.71-11.22-.87-14.73-2.94-.78-.46-1.52-.9-2.23-1.25-7.58-3.79-16-4.1-23.31-4.1-9.36,0-12-1.08-18.24-4.21-3.53-1.76-5.59-3.81-7.4-5.63-3.01-3.02-5.39-5.4-13.15-5.4-1.06.29-13.5,9.54-14.88,10.93-6.15,6.16-7.53,5.75-10.97,3.52-1.59-1.03-3.78-2.45-7.52-3.38-3.15-.79-8.07-2.9-13.27-5.14-2.54-1.09-5.17-2.22-7.57-3.18-2.93-1.17-9.31-5.1-14.34-8.48-1.25-.85-2.52-1.75-3.77-2.65-3.68-2.75-13.54,5.81-15.99,8.25-6.28,6.3-12.73,13.08-16.52,20.64-4.65,9.31-6.89,12.44-11.12,18.09-3.3,4.4-7.33,7.88-11.23,11.24-3.81,3.29-7.76,6.69-10.93,10.91-4.97,6.63-7.92,18.87-10.07,27.81-.33,1.37-.64,2.68-.94,3.88-.11.47-.21.97-.3,1.49-1.22,6.26-.7,13.74-.19,20.98.26,3.78.51,7.34.51,10.65,0,6.18.36,12.23.7,18.08.34,5.81.7,11.83.7,17.93v6.46l53.03,2.46c0-.41,0-.82,0-1.25,0-.67-.01-1.38-.01-2.13,0-6.6,2.27-9.5,4.28-12.05,1.18-1.5,2.2-2.8,2.68-4.69l.19-.77c1.13-4.62,3.02-12.35,6.68-12.76,2.06-.24,4.21,1.89,6.52,6.51,1.13,2.27,9.93,9.58,15.05,9.03,1.78-.2,2.89-1.3,3.41-3.39,1.39-5.58,2.62-8.07,4.12-8.32,1.39-.24,2.44,1.43,3.57,3.18,1.13,1.74,2.4,3.71,3.75,3.38,1.79-.45,3.75-1.45,5.65-2.41,3.98-2.03,8.09-4.12,11.39-1.64.03.02.14.1.3.23,8.29,6.32,14.41,9.68,16.37,9,.3-.11.47-.31.56-.65.05-.21.17-.82.34-1.7,2.26-11.83,3.89-17.22,5.46-18.02,2.08-1.04,5,.63,7.58,2.11,1.65.95,3.51,2.02,4.24,1.69.07-.03.28-.13.39-.67,1.2-6.03,2.62-8.87,4.72-9.51.3-.09.61-.14.93-.14ZM327.54,33.01s0,0,0,.01c0,0,0,0,0-.01Z"/>
        </g>
        <g>
          <path class="cls-2" d="M684.06,152.13c-5.5,1.36-13.66,3.95-18.02,8.3-3.56,3.58-8.24,4.08-12.46,8.32-5.67,5.67-4.63,8.75-6.94,18-1.54,6.16-8.73,10.82-6.92,18.02,1.44,5.79,2.51,16.36,6.92,20.77,8.43,8.43,3.26,10.84-2.76,13.86-1.57.78-12.79,9.35-4.16,11.08,9.97,2,17.67,5.89,9.7,13.86-4.72,4.72-13.93,1.46-18.02,5.54-2.68,2.68,6.18,9.37,2.78,11.08-3.79,1.89-.47,9.56.49,14.67.51,2.72.37,4.72-1.87,4.72-4.98,0-10.34,9.06-13.86,5.54-2.29-2.29-10.11-5.99-16.77-7.56-1.94-.47-3.81-.76-5.4-.76-9.27,0-10.79,1.24-16.62,4.16-.64.33-16.71,5.34-15.24,8.32,3.15,6.3,18.13,18,11.08,18-2.14,0-16.85-7.52-19.4-4.16-3.56,4.76-10.38,19.74-19.38,15.24-4.78-2.37-6.39-13.02-9.7-13.84-6.01-1.5-18.21-2.72-23.55-1.4-8.42,2.12-8.61,4.78-12.46,12.48-2.18,4.35-5.38,9.54-12.88,8.73-.76-.1-1.52-.21-2.35-.41-4.7-1.19-19.26-9.99-15.24-18.02,2.49-4.98,16.64-12.46,11.08-12.46-11.97,0-10.86-12.48-16.62-12.48-10.77,0-4.99,9.21-12.48,11.08-1.57.41-3.15.6-4.72.74-6.35.52-12.63-.74-18.83-.74-5.44,0-16.91-2.16-19.38,2.78-1.67,3.34-3.46,13.86-9.7,13.86h-13.45c.18-1.01.06-2.27-.41-4.16-1.26-5.01-9.6-11.95-11.08-19.4-.89-4.45-9.76-3.44,2.76-9.7,1.13-.56,1.36-1.32,1.07-2.2-1.03-3.07-8.8-7.73-10.77-11.66-.31-.64-16.62,8.32-16.62,8.32-7.02,3.52-1.92-13.64-8.32-15.24-7.11-1.79-8.05-5.54-15.24-5.54s-13.84,6.41-13.84-4.16c0-8.38-.8-14.34-8.32-12.46-8.18,2.04-8.16,7.54-11.08-4.16-2-8.03,8.57-3.91-1.38-13.86-.23-.23-.49-.39-.74-.54,4.82-4.26,8.82-5.64,17.35-7.77,9.09-2.27,11.72-10.55,19.4-12.46,4.78-1.2,12.24,4.1,18,5.54,10.46,2.6-3.05-11.23-5.54-12.48-5.93-2.95,7.87-11.54,9.7-12.46,8.3-4.14-3.81-12.13-6.92-15.24-8.26-8.24,3.38-15.86,6.92-19.4,8.24-8.24-3.75-9.04-8.32-12.46-4.8-3.61,4.08-12.63,1.4-18.02-1.22-2.45,11.78-5.19,15.24-6.92,4.29-2.16,8.26-10.88,9.7-16.62,1.69-6.78-11.1-5.89-11.1-15.24,0-6.01,4.31-16.77,6.94-19.4,1.34-1.36.91-3.69,1.38-5.54,3.71-3.71-5.97-7.02-11.58-10.75.17-.12.33-.25.51-.35,6.45-3.23,6.53-11.56,11.08-13.84,6.22-3.11,15.92-.68,6.92,8.3-.6.62-8.49,8.32,0,8.32,6.39,0,12.53-5.15,13.86-4.16,2.99,2.25,13.9,12.61,15.24,18.02,1.85,7.4,1.67,18,11.08,18,7.09,0,17.45,3.89,23.55,6.94,5.05,2.53,10.82,3.96,16.62,8.3,7.81,5.87,14.95,9.41,22.17,16.64,4.94,4.94,10.86,11.08,18,11.08s15.14,1.38,22.17,1.38c10.34,0,12.38,1.44,20.77-2.78,10.2-5.09,4.41-10.75,6.92-20.77,1.92-7.68,2.29-12.87,5.54-19.38,4.55-9.1,5.19-3.15,11.08,2.76,6.96,6.96,5.29,7,16.64,4.16,20.19-5.05,1.5,3.01,4.14,8.32,5.91,11.78,6.65-.16,15.24,4.14,15.47,7.73-5.19,4.86,0,15.24,3.56,7.09,10.94,7.58,19.4,9.7,6.49,1.63,12.26,2.78,20.77,2.78,6.92,0,13.82,3.48,20.79,0,6.45-3.23,10.38-7.79,16.62-12.48,2.02-1.52,12.46-17.1,12.46-6.92,0,6.43-4.78,16.83-4.16,19.4.66,2.62,4.26,5.44,7.39,7.87,3.71,2.88,6.82,5.21,3.71,5.99Z"/>
          <path class="cls-3" d="M480.21,345.66c-.52,0-1.06-.03-1.63-.09-.68-.09-1.5-.21-2.41-.42-3.37-.85-12.69-6-15.5-12.14-1.07-2.33-1.09-4.55-.07-6.59,1.18-2.36,4.7-5.12,7.8-7.56,1.87-1.47,4.42-3.47,4.5-4.1-.04.02-.23-.07-.78-.07-7.36,0-9.97-4.53-12.07-8.17-1.39-2.41-2.48-4.31-4.55-4.31-5.61,0-6.38,2.47-7.26,5.33-.7,2.26-1.5,4.83-5.1,5.73-1.72.45-3.39.63-4.8.75-3.78.31-7.56,0-11.22-.31-2.52-.21-5.13-.43-7.66-.43-1.17,0-2.63-.1-4.17-.2-5.47-.37-12.96-.88-14.76,2.71-.36.72-.74,1.82-1.17,3.08-1.51,4.4-3.78,11.05-8.97,11.05h-14.04l.1-.59c.16-.95.04-2.17-.4-3.95-.53-2.1-2.45-4.67-4.48-7.4-2.7-3.62-5.75-7.73-6.61-12.02-.26-1.28-1.31-2.07-2.24-2.77-.89-.67-1.73-1.31-1.64-2.28.1-1.09,1.31-2.39,6.91-5.19,1.02-.51.99-1.06.82-1.59-.47-1.4-2.7-3.37-4.86-5.27-2.27-2-4.62-4.06-5.72-6.04-1.75.53-10.61,5.24-16.08,8.24-1.23.61-2.2.7-2.99.26-1.61-.89-1.88-3.66-2.19-6.86-.36-3.71-.78-7.91-3.5-8.59-3.13-.79-5.11-1.96-6.87-2.99-2.3-1.36-4.28-2.53-8.25-2.53-2.22,0-4.38.59-6.27,1.11-2.58.71-4.8,1.32-6.32.17-1.19-.91-1.75-2.8-1.75-5.94,0-5.86-.43-9.82-2.55-11.47-1.17-.91-2.85-1.08-5.15-.5-2.34.58-4.03,1.48-5.26,2.13-1.36.72-2.34,1.25-3.27.83-1.13-.5-1.84-2.18-3.16-7.48-.91-3.65.67-5.08,1.82-6.11.68-.61,1.1-1.02,1.12-1.63.03-1.13-1.3-3-4.19-5.89-.19-.19-.41-.32-.64-.47l-.57-.35.5-.45c4.99-4.4,9.18-5.78,17.57-7.88,4.61-1.15,7.53-3.91,10.35-6.57,2.69-2.54,5.24-4.94,9.04-5.89,3.18-.8,7.4,1.09,11.48,2.92,2.3,1.03,4.68,2.1,6.76,2.62,1.86.46,3.04.41,3.25-.15.82-2.21-7.12-10.39-9.13-11.39-1.44-.72-1.75-1.72-1.75-2.44,0-4.09,10.08-10.23,11.44-10.91,1.59-.79,2.42-1.73,2.56-2.86.37-3.02-4.28-6.97-7.36-9.58-.92-.78-1.71-1.45-2.25-1.99-2.09-2.09-3.12-4.33-3.04-6.66.15-4.78,4.9-8.95,8.05-11.7.76-.67,1.42-1.25,1.92-1.74,2-2,2.88-3.67,2.63-4.96-.38-1.94-3.29-3.15-6.11-4.33-1.73-.72-3.52-1.47-4.78-2.41-2.86-2.16-1.41-5.94,0-9.6,1.18-3.09,2.41-6.28,1.26-8.6-.17-.34-.18-.7-.03-1.06.66-1.56,4.58-2.9,10.03-4.61,2.25-.71,4.38-1.38,5.46-1.92,4.18-2.1,8.1-10.96,9.44-16.29.72-2.88-1.49-4.19-4.28-5.86-3.04-1.82-6.83-4.08-6.83-9.25,0-5.99,4.22-16.89,7.08-19.75.76-.77.86-1.98.97-3.26.06-.68.12-1.39.28-2.05l.03-.13.1-.1c.52-.52.74-1.02.67-1.53-.26-1.78-3.85-3.74-7.33-5.63-1.67-.91-3.39-1.85-4.84-2.81l-.63-.42.63-.42c.06-.04.12-.08.18-.13.12-.09.24-.17.36-.24,3.38-1.69,4.92-4.79,6.41-7.78,1.27-2.55,2.46-4.95,4.69-6.06,3.56-1.78,8.83-1.98,10.68.6,1.02,1.41,1.29,4.04-3.19,8.5l-.08.08c-2.73,2.76-4.07,5.11-3.59,6.26.39.92,2.02,1.12,3.32,1.12,3.58,0,7.14-1.7,9.74-2.93,2.26-1.08,3.62-1.72,4.42-1.12,2.75,2.07,14.02,12.63,15.42,18.3.34,1.38.61,2.83.89,4.37,1.2,6.51,2.44,13.25,9.7,13.25,7.73,0,18.58,4.39,23.78,6.99,1.62.81,3.3,1.5,5.08,2.23,3.76,1.55,7.65,3.14,11.61,6.11,2.65,1.99,5.25,3.73,7.76,5.41,4.97,3.33,9.66,6.47,14.46,11.27l.42.42c4.92,4.93,10.5,10.51,17.22,10.51,3.76,0,7.64.36,11.4.71,3.77.35,7.32.67,10.77.67,2.39,0,4.31.08,6.01.14,5.62.21,8.19.32,14.54-2.87,6.37-3.18,6.23-6.4,6.02-11.29-.12-2.63-.25-5.61.64-9.16.54-2.17.96-4.11,1.36-5.99,1-4.7,1.86-8.76,4.22-13.48,1.7-3.39,2.91-4.83,4.19-4.95,1.45-.13,2.54,1.33,4.11,3.36.99,1.28,2.11,2.74,3.58,4.22.75.75,1.41,1.43,1.99,2.02q4.34,4.47,12.81,2.34l1.36-.34c7.84-1.96,9.52-1.89,10-1.05.46.8-.49,1.79-1.94,3.29-1.81,1.88-4.3,4.45-3.36,6.34,1.53,3.05,2.78,4.64,3.92,5,.88.28,1.73-.18,2.8-.76,1.82-.98,4.32-2.32,8.29-.33,4.31,2.16,6.09,3.59,6.13,4.95.04,1.21-1.23,1.96-2.7,2.82-2.56,1.51-5.45,3.21-3.21,7.69,2.89,5.77,8.3,6.98,15.16,8.52,1.27.29,2.58.58,3.91.91,6.96,1.75,12.57,2.76,20.65,2.76,2.35,0,4.71.4,6.99.78,4.67.78,9.07,1.52,13.58-.73,4.16-2.08,7.31-4.77,10.65-7.63,1.82-1.56,3.71-3.17,5.88-4.8.42-.31,1.35-1.43,2.42-2.72,3.85-4.63,7.21-8.4,9.34-7.63,1,.36,1.49,1.62,1.49,3.83,0,3.55-1.38,8.15-2.61,12.2-.94,3.1-1.82,6.03-1.57,7.08.62,2.48,4.27,5.32,7.21,7.59l.26.2c3.31,2.57,5.17,4.08,4.9,5.41-.19.9-1.27,1.17-1.63,1.26h0c-5.83,1.44-13.64,4.03-17.78,8.17-1.76,1.77-3.74,2.79-5.83,3.86-2.2,1.13-4.48,2.3-6.62,4.45-4.09,4.09-4.59,6.76-5.5,11.6-.33,1.75-.7,3.73-1.31,6.16-.61,2.45-2.08,4.67-3.51,6.81-2.3,3.47-4.47,6.74-3.41,10.96.32,1.31.63,2.86.96,4.5,1.12,5.67,2.51,12.72,5.83,16.04s4.88,6.1,4.51,8.36c-.46,2.83-3.71,4.46-7.16,6.18l-.24.12c-1.16.57-7.46,5.44-7.1,8.22.12.93,1.07,1.57,2.81,1.92,7.93,1.59,12.26,3.9,13.21,7.06.67,2.23-.42,4.8-3.26,7.64-2.58,2.58-6.32,2.89-9.93,3.19-3.21.27-6.25.52-8.08,2.35-1.05,1.05.35,3.18,1.7,5.24,1.18,1.8,2.29,3.49,1.95,4.77-.13.5-.47.89-1,1.15-2.54,1.27-1.29,6.02-.19,10.22.37,1.39.71,2.71.94,3.92.43,2.29.31,3.68-.38,4.51-.44.53-1.11.8-1.98.8-2.02,0-4.19,1.68-6.3,3.31-2.77,2.14-5.63,4.36-7.91,2.08-2.13-2.13-9.82-5.84-16.53-7.43-2.06-.49-3.84-.74-5.29-.74-8.3,0-10.23.98-14.89,3.35-.47.24-.97.49-1.5.76-.12.06-.41.16-1.25.46-8.5,2.97-13.13,5.26-13.75,6.78-.08.21-.05.33,0,.41,1.16,2.32,3.99,5.42,6.74,8.42,4.28,4.68,6.87,7.64,6.14,9.31-.44.99-1.8.99-2.24.99-.71,0-2.24-.58-4.9-1.59-4.7-1.8-12.55-4.81-14.1-2.76-.62.84-1.35,2-2.2,3.34-3.99,6.35-10.01,15.94-17.8,12.04-2.69-1.33-4.38-5.02-5.88-8.27-1.23-2.68-2.39-5.2-3.72-5.53-5.75-1.43-17.97-2.72-23.31-1.4-7.11,1.79-8.12,3.89-10.81,9.5-.4.83-.83,1.73-1.32,2.71-2.38,4.76-5.46,9.09-11.76,9.09ZM455.51,301.21c2.64,0,3.99,2.34,5.42,4.81,2.07,3.59,4.42,7.67,11.2,7.67.63,0,1.5.08,1.73.75.37,1.06-1.31,2.44-4.84,5.21-2.87,2.26-6.45,5.06-7.53,7.22-.88,1.76-.85,3.68.08,5.73,2.68,5.85,11.61,10.77,14.83,11.58.86.2,1.64.31,2.29.4,6.8.74,9.96-3.63,12.37-8.45.49-.98.92-1.88,1.31-2.7,2.76-5.75,3.9-8.13,11.47-10.04,5.49-1.36,17.96-.06,23.8,1.4,1.79.44,2.99,3.06,4.38,6.08,1.43,3.1,3.04,6.62,5.41,7.79,6.98,3.5,12.71-5.63,16.51-11.67.86-1.37,1.6-2.54,2.25-3.41,2-2.65,9.66.29,15.26,2.43,2.05.79,3.98,1.53,4.54,1.53.74,0,1.21-.14,1.33-.4.51-1.15-3.08-5.08-5.96-8.23-2.79-3.05-5.67-6.21-6.89-8.65-.19-.38-.2-.81-.02-1.23.98-2.41,8.18-5.19,14.35-7.35.62-.22,1.03-.36,1.14-.41.53-.27,1.03-.52,1.5-.76,4.67-2.37,6.8-3.46,15.34-3.46,1.53,0,3.38.26,5.52.77,6.98,1.65,14.74,5.42,17.01,7.69,1.55,1.55,3.52.21,6.59-2.16,2.24-1.73,4.55-3.52,6.91-3.52.56,0,.96-.14,1.21-.44.47-.56.52-1.77.17-3.69-.22-1.17-.56-2.47-.92-3.85-1.2-4.56-2.57-9.74.71-11.37.35-.18.45-.38.48-.52.23-.84-.86-2.5-1.82-3.96-1.5-2.29-3.2-4.88-1.57-6.5,2.1-2.1,5.31-2.36,8.71-2.64,3.44-.28,6.99-.58,9.31-2.9,2.56-2.56,3.57-4.79,3.01-6.64-.83-2.73-5.02-4.88-12.45-6.37-2.21-.44-3.42-1.38-3.61-2.77-.47-3.59,6.5-8.68,7.64-9.24l.24-.12c3.35-1.67,6.24-3.12,6.62-5.44.31-1.89-1.08-4.34-4.23-7.49-3.53-3.53-4.96-10.75-6.1-16.55-.32-1.63-.63-3.17-.95-4.46-1.17-4.64,1.23-8.26,3.55-11.75,1.44-2.17,2.8-4.22,3.37-6.5.6-2.4.97-4.37,1.3-6.1.92-4.88,1.47-7.82,5.77-12.12,2.25-2.26,4.6-3.47,6.87-4.64,2.02-1.04,3.94-2.02,5.58-3.68,4.3-4.3,12.3-6.96,18.25-8.43.52-.13.85-.31.89-.49.16-.78-2.44-2.79-4.53-4.41l-.26-.2c-3.05-2.37-6.85-5.32-7.56-8.14-.32-1.31.52-4.09,1.58-7.61,1.2-3.99,2.56-8.5,2.56-11.91,0-1.67-.29-2.7-.83-2.89-1.65-.61-5.93,4.56-8.23,7.33-1.21,1.45-2.08,2.5-2.59,2.88-2.15,1.62-4.02,3.21-5.83,4.76-3.39,2.89-6.59,5.63-10.86,7.76-4.8,2.39-9.57,1.59-14.19.82-2.24-.38-4.57-.77-6.83-.77-8.18,0-13.86-1.02-20.9-2.79-1.32-.33-2.62-.62-3.89-.91-6.83-1.54-12.73-2.86-15.83-9.05-2.66-5.31,1.11-7.53,3.6-9,1.14-.67,2.23-1.31,2.21-1.93-.03-.88-1.91-2.25-5.58-4.09-3.51-1.75-5.56-.65-7.37.32-1.18.64-2.31,1.23-3.58.83-1.43-.45-2.83-2.15-4.51-5.51-1.26-2.52,1.51-5.39,3.53-7.48.7-.73,1.65-1.71,1.76-2.1-.4-.17-2.13-.16-8.87,1.52l-1.36.34c-8.86,2.23-9.03,2.27-13.77-2.62-.58-.59-1.23-1.26-1.98-2.01-1.52-1.53-2.71-3.07-3.67-4.31-1.32-1.71-2.35-3.07-3.22-2.98-.85.08-1.93,1.48-3.39,4.4-2.3,4.61-3.15,8.61-4.14,13.25-.4,1.89-.82,3.84-1.36,6.03-.85,3.41-.73,6.32-.61,8.88.21,4.89.38,8.75-6.57,12.22-6.58,3.3-9.4,3.19-15.02,2.97-1.69-.07-3.61-.14-5.97-.14-3.5,0-7.24-.35-10.87-.68-3.73-.34-7.59-.7-11.31-.7-7.14,0-13.12-5.99-17.93-10.8l-.42-.42c-4.73-4.73-9.38-7.84-14.31-11.14-2.52-1.69-5.13-3.44-7.81-5.45-3.86-2.89-7.69-4.46-11.39-5.99-1.8-.74-3.49-1.44-5.15-2.26-5.12-2.56-15.79-6.88-23.33-6.88-8.09,0-9.47-7.47-10.68-14.07-.28-1.52-.54-2.96-.88-4.31-1.26-5.08-11.79-15.28-15.05-17.74-.32-.23-2.09.61-3.38,1.23-2.68,1.28-6.36,3.03-10.17,3.03-2.33,0-3.76-.58-4.24-1.73-.85-2.03,1.6-5.12,3.8-7.35l.08-.08c3.11-3.1,4.2-5.66,3.09-7.22-1.36-1.89-5.94-2.03-9.42-.29-1.93.96-3,3.12-4.24,5.62-1.46,2.94-3.12,6.27-6.64,8.12,1.27.8,2.72,1.58,4.12,2.35,3.86,2.1,7.51,4.09,7.84,6.37.11.79-.17,1.56-.85,2.28-.12.54-.17,1.14-.22,1.76-.12,1.4-.24,2.85-1.25,3.88-2.44,2.44-6.79,12.97-6.79,19.04,0,4.6,3.23,6.53,6.34,8.39,2.9,1.73,5.63,3.37,4.74,6.96-1.42,5.67-5.45,14.68-9.96,16.94-1.15.58-3.21,1.22-5.6,1.98-3.75,1.18-8.88,2.79-9.41,4.05-.04.1-.03.16,0,.22,1.35,2.71.05,6.11-1.22,9.4-1.33,3.46-2.59,6.74-.33,8.44,1.16.87,2.89,1.59,4.57,2.29,3.06,1.28,6.22,2.59,6.71,5.06.33,1.66-.62,3.58-2.9,5.86-.52.52-1.19,1.11-1.96,1.79-3.01,2.64-7.57,6.64-7.71,10.99-.07,2.04.86,4.03,2.75,5.92.51.52,1.29,1.18,2.19,1.94,3.43,2.92,8.13,6.91,7.7,10.46-.18,1.47-1.22,2.7-3.11,3.63-2.23,1.12-10.89,6.87-10.89,10.02,0,.64.39,1.15,1.19,1.55,1.74.87,10.77,9.52,9.62,12.63-.63,1.72-3.49,1.01-4.43.78-2.16-.54-4.58-1.63-6.92-2.68-3.92-1.76-7.99-3.58-10.83-2.86-3.55.88-6,3.2-8.6,5.65-2.92,2.75-5.93,5.6-10.79,6.81-7.94,1.99-12.04,3.31-16.66,7.24.09.07.18.15.27.24,3.18,3.18,4.52,5.16,4.48,6.62-.03,1.07-.75,1.71-1.45,2.34-1.12,1.01-2.29,2.06-1.52,5.13,1,4.03,1.75,6.43,2.59,6.81.49.22,1.28-.21,2.39-.8,1.27-.68,3.02-1.6,5.48-2.21,2.61-.65,4.58-.43,6.01.68,2.44,1.9,2.93,6.1,2.93,12.26,0,2.77.44,4.45,1.36,5.15,1.12.86,3.12.3,5.44-.34,1.96-.54,4.18-1.15,6.54-1.15,4.24,0,6.43,1.3,8.76,2.67,1.78,1.05,3.61,2.13,6.6,2.88,3.41.85,3.86,5.43,4.25,9.47.26,2.68.54,5.45,1.68,6.08.48.26,1.14.17,2.04-.28,10.52-5.78,16.21-8.6,16.96-8.37l.2.07.13.22c.94,1.88,3.33,3.98,5.64,6.02,2.36,2.08,4.59,4.04,5.15,5.7.28.84.28,2-1.32,2.8-1.54.77-6.24,3.12-6.36,4.39-.04.42.56.87,1.25,1.39,1.02.77,2.28,1.72,2.61,3.37.81,4.07,3.79,8.08,6.43,11.62,2.09,2.81,4.07,5.46,4.64,7.75.4,1.6.55,2.8.49,3.78h12.89c4.48,0,6.53-6,8.03-10.37.45-1.3.83-2.43,1.22-3.21,2.09-4.19,9.65-3.67,15.72-3.26,1.53.1,2.96.2,4.1.2,2.57,0,5.2.22,7.74.43,3.62.3,7.35.61,11.05.31,1.37-.12,2.99-.3,4.64-.72,3.06-.76,3.7-2.85,4.39-5.05.88-2.83,1.87-6.04,8.22-6.04ZM358.09,282.54s0,0,0,0c0,0,0,0,0,0Z"/>
        </g>
      </g>
      <g>
        <path class="cls-1" d="M452.86,213h-.06c-1.37,2.3-3.25,3.11-5.63,3.11-3.02,0-5.38-1.09-7.03-2.91-1.65-1.85-2.6-4.42-2.6-7.45,0-3.33,1.18-6.24,3.28-8.18,1.62-1.48,3.75-2.3,6.44-2.3,5.04,0,7.92,2.77,8.57,6.69h-3.98c-.45-1.93-1.93-3.33-4.51-3.33-3.78,0-5.66,3.14-5.66,7.11s2.16,7.08,5.6,7.08c3.11,0,5.15-2.32,5.15-4.54v-.11h-4.82v-3.14h8.43v10.64h-3.05l-.14-2.69Z"/>
        <path class="cls-1" d="M462.24,203.62h.08c.87-1.62,1.85-2.46,3.53-2.46.42,0,.67.03.9.11v3.33h-.08c-2.49-.25-4.28,1.06-4.28,4.09v7h-3.81v-14.36h3.67v2.3Z"/>
        <path class="cls-1" d="M476.58,214.09h-.06c-.73,1.09-1.76,1.93-4.23,1.93-2.94,0-5.01-1.54-5.01-4.4,0-3.16,2.58-4.17,5.77-4.62,2.38-.34,3.47-.53,3.47-1.62s-.81-1.71-2.41-1.71c-1.79,0-2.66.64-2.77,2.02h-3.39c.11-2.52,1.99-4.73,6.19-4.73s6.05,1.93,6.05,5.29v7.31c0,1.09.17,1.74.5,1.99v.14h-3.67c-.22-.28-.36-.95-.45-1.6ZM476.61,210.62v-2.16c-.67.39-1.71.62-2.66.84-1.99.45-2.97.9-2.97,2.24s.9,1.82,2.24,1.82c2.18,0,3.39-1.34,3.39-2.74Z"/>
        <path class="cls-1" d="M481.9,208.52c0-4.48,2.55-7.59,6.13-7.59,2.02,0,3.28.92,4.06,2.13h.08v-7.39h3.81v20.02h-3.67v-1.88h-.06c-.84,1.37-2.27,2.3-4.28,2.3-3.61,0-6.08-2.94-6.08-7.59ZM492.26,208.6c0-2.74-.9-4.59-3.33-4.59-2.1,0-3.16,1.85-3.16,4.51s1.09,4.4,3.05,4.4c2.27,0,3.44-1.68,3.44-4.31Z"/>
        <path class="cls-1" d="M498.44,195.67h3.81v3.42h-3.81v-3.42ZM498.44,201.32h3.81v14.36h-3.81v-14.36Z"/>
        <path class="cls-1" d="M503.82,211.04h3.53c.25,1.65,1.43,2.38,3.14,2.38s2.63-.64,2.63-1.65c0-1.37-1.82-1.51-3.78-1.9-2.58-.5-5.1-1.2-5.1-4.34s2.58-4.59,5.85-4.59c3.78,0,5.88,1.88,6.16,4.76h-3.44c-.17-1.54-1.15-2.1-2.77-2.1-1.48,0-2.46.56-2.46,1.6,0,1.23,1.9,1.34,3.95,1.76,2.41.5,5.07,1.18,5.07,4.54,0,2.88-2.46,4.62-6.05,4.62-4.17,0-6.5-2.02-6.72-5.07ZM505.58,196.03h3.3l1.34,1.93h.06l1.37-1.93h3.33l-2.63,3.53h-4.09l-2.69-3.53Z"/>
        <path class="cls-1" d="M523.73,209.14l-1.65,1.71v4.84h-3.78v-20.02h3.78v11.09l5.1-5.43h4.56l-5.29,5.46,5.94,8.9h-4.62l-4.03-6.55Z"/>
        <path class="cls-1" d="M541.76,214.09h-.06c-.73,1.09-1.76,1.93-4.23,1.93-2.94,0-5.01-1.54-5.01-4.4,0-3.16,2.58-4.17,5.77-4.62,2.38-.34,3.47-.53,3.47-1.62s-.81-1.71-2.41-1.71c-1.79,0-2.66.64-2.77,2.02h-3.39c.11-2.52,1.99-4.73,6.19-4.73s6.05,1.93,6.05,5.29v7.31c0,1.09.17,1.74.5,1.99v.14h-3.67c-.22-.28-.36-.95-.45-1.6ZM541.79,210.62v-2.16c-.67.39-1.71.62-2.66.84-1.99.45-2.97.9-2.97,2.24s.9,1.82,2.24,1.82c2.18,0,3.39-1.34,3.39-2.74Z"/>
      </g>
      <g>
        <path class="cls-1" d="M79.26,137.19h4.06v7.98l7.7-7.98h5.04l-7.84,8.01,8.34,12.01h-4.76l-6.44-9.35-2.04,2.07v7.28h-4.06v-20.02Z"/>
        <path class="cls-1" d="M95.87,150.04c0-4.28,3.05-7.59,7.5-7.59s7.5,3.3,7.5,7.59-3.05,7.59-7.5,7.59-7.5-3.3-7.5-7.59ZM107.01,150.04c0-2.8-1.32-4.7-3.64-4.7s-3.64,1.9-3.64,4.7,1.29,4.68,3.64,4.68,3.64-1.88,3.64-4.68Z"/>
        <path class="cls-1" d="M111.74,154.3l7.39-8.37v-.08h-6.55v-3h10.98v3.05l-7.22,8.18v.08h7.59v3.05h-12.18v-2.91Z"/>
        <path class="cls-1" d="M134.39,155.61h-.06c-.73,1.09-1.76,1.93-4.23,1.93-2.94,0-5.01-1.54-5.01-4.4,0-3.16,2.58-4.17,5.77-4.62,2.38-.34,3.47-.53,3.47-1.62s-.81-1.71-2.41-1.71c-1.79,0-2.66.64-2.77,2.02h-3.39c.11-2.52,1.99-4.73,6.19-4.73s6.05,1.93,6.05,5.29v7.31c0,1.09.17,1.74.5,1.99v.14h-3.67c-.22-.28-.36-.95-.45-1.6ZM134.42,152.14v-2.16c-.67.39-1.71.62-2.66.84-1.99.45-2.97.9-2.97,2.24s.9,1.82,2.24,1.82c2.18,0,3.39-1.34,3.39-2.74Z"/>
        <path class="cls-1" d="M144.08,145.14h.08c.87-1.62,1.85-2.46,3.53-2.46.42,0,.67.03.9.11v3.33h-.08c-2.49-.25-4.28,1.06-4.28,4.09v7h-3.81v-14.36h3.67v2.3Z"/>
        <path class="cls-1" d="M149.34,152.56h3.53c.25,1.65,1.43,2.38,3.14,2.38s2.63-.64,2.63-1.65c0-1.37-1.82-1.51-3.78-1.9-2.58-.5-5.1-1.2-5.1-4.34s2.58-4.59,5.85-4.59c3.78,0,5.88,1.88,6.16,4.76h-3.44c-.17-1.54-1.15-2.1-2.77-2.1-1.48,0-2.46.56-2.46,1.6,0,1.23,1.9,1.34,3.95,1.76,2.41.5,5.07,1.18,5.07,4.54,0,2.88-2.46,4.62-6.05,4.62-4.17,0-6.5-2.02-6.72-5.07Z"/>
        <path class="cls-1" d="M169.25,150.66l-1.65,1.71v4.84h-3.78v-20.02h3.78v11.09l5.1-5.43h4.56l-5.29,5.46,5.94,8.9h-4.62l-4.03-6.55Z"/>
        <path class="cls-1" d="M187.28,155.61h-.06c-.73,1.09-1.76,1.93-4.23,1.93-2.94,0-5.01-1.54-5.01-4.4,0-3.16,2.58-4.17,5.77-4.62,2.38-.34,3.47-.53,3.47-1.62s-.81-1.71-2.41-1.71c-1.79,0-2.66.64-2.77,2.02h-3.39c.11-2.52,1.99-4.73,6.19-4.73s6.05,1.93,6.05,5.29v7.31c0,1.09.17,1.74.5,1.99v.14h-3.67c-.22-.28-.36-.95-.45-1.6ZM187.31,152.14v-2.16c-.67.39-1.71.62-2.66.84-1.99.45-2.97.9-2.97,2.24s.9,1.82,2.24,1.82c2.18,0,3.39-1.34,3.39-2.74Z"/>
        <path class="cls-1" d="M198.32,137.19h7.81c5.35,0,8.79,4.31,8.79,10.22,0,3.25-1.09,6.1-3.19,7.87-1.48,1.23-3.42,1.93-5.94,1.93h-7.48v-20.02ZM205.51,153.71c3.81,0,5.29-2.32,5.29-6.3s-1.74-6.75-5.18-6.75h-3.25v13.05h3.14Z"/>
        <path class="cls-1" d="M225.9,157.21v-1.68h-.08c-.98,1.32-2.1,2.07-4.12,2.07-3.19,0-4.98-2.04-4.98-5.18v-9.58h3.78v8.93c0,1.68.76,2.6,2.38,2.6,1.79,0,2.88-1.34,2.88-3.25v-8.29h3.81v14.36h-3.67Z"/>
        <path class="cls-1" d="M235.75,155.42h-.06v1.79h-3.67v-20.02h3.81v7.39h.08c.78-1.2,2.02-2.13,4-2.13,3.61,0,6.19,3.11,6.19,7.59s-2.46,7.59-6.08,7.59c-2.02,0-3.44-.87-4.28-2.21ZM242.25,150.04c0-2.66-1.06-4.51-3.19-4.51-2.41,0-3.3,1.93-3.3,4.59s1.32,4.31,3.44,4.31c1.96,0,3.05-1.62,3.05-4.4Z"/>
        <path class="cls-1" d="M247.88,137.19h3.81v3.42h-3.81v-3.42ZM247.88,142.84h3.81v14.36h-3.81v-14.36Z"/>
        <path class="cls-1" d="M253.45,150.04c0-4.28,2.8-7.59,7.17-7.59,3.72,0,6.02,2.16,6.52,5.26h-3.72c-.25-1.26-1.23-2.21-2.63-2.21-2.3,0-3.47,1.76-3.47,4.54s1.09,4.54,3.42,4.54c1.54,0,2.63-.81,2.88-2.44h3.67c-.25,3.05-2.63,5.49-6.47,5.49-4.54,0-7.36-3.3-7.36-7.59Z"/>
        <path class="cls-1" d="M277.81,155.61h-.06c-.73,1.09-1.76,1.93-4.23,1.93-2.94,0-5.01-1.54-5.01-4.4,0-3.16,2.58-4.17,5.77-4.62,2.38-.34,3.47-.53,3.47-1.62s-.81-1.71-2.41-1.71c-1.79,0-2.66.64-2.77,2.02h-3.39c.11-2.52,1.99-4.73,6.19-4.73s6.05,1.93,6.05,5.29v7.31c0,1.09.17,1.74.5,1.99v.14h-3.67c-.22-.28-.36-.95-.45-1.6ZM277.83,152.14v-2.16c-.67.39-1.71.62-2.66.84-1.99.45-2.97.9-2.97,2.24s.9,1.82,2.24,1.82c2.18,0,3.39-1.34,3.39-2.74Z"/>
      </g>
      <g>
        <path class="cls-1" d="M728.88,231.54h3.98c.28,2.41,1.65,3.36,4.51,3.36,2.07,0,3.89-.73,3.89-2.58,0-1.96-1.9-2.35-4.96-3.05-3.58-.81-6.86-1.76-6.86-5.94,0-3.95,3.22-5.99,7.67-5.99s7.42,2.21,7.73,6.24h-3.89c-.22-2.02-1.79-3.02-3.86-3.02-2.18,0-3.61.92-3.61,2.35,0,1.62,1.4,2.1,4.37,2.74,4.12.9,7.48,1.88,7.48,6.19,0,4.06-3.28,6.33-7.78,6.33-5.43,0-8.51-2.41-8.65-6.64Z"/>
        <path class="cls-1" d="M751.11,225.66h.08c.87-1.62,1.85-2.46,3.53-2.46.42,0,.67.03.9.11v3.33h-.08c-2.49-.25-4.28,1.06-4.28,4.09v7h-3.81v-14.36h3.67v2.3Z"/>
        <path class="cls-1" d="M760.99,235.94h-.06v1.79h-3.67v-20.02h3.81v7.39h.08c.78-1.2,2.02-2.13,4-2.13,3.61,0,6.19,3.11,6.19,7.59s-2.46,7.59-6.08,7.59c-2.02,0-3.44-.87-4.28-2.21ZM767.49,230.56c0-2.66-1.06-4.51-3.19-4.51-2.41,0-3.3,1.93-3.3,4.59s1.32,4.31,3.44,4.31c1.96,0,3.05-1.62,3.05-4.4Z"/>
        <path class="cls-1" d="M781.71,236.13h-.06c-.73,1.09-1.76,1.93-4.23,1.93-2.94,0-5.01-1.54-5.01-4.4,0-3.16,2.58-4.17,5.77-4.62,2.38-.34,3.47-.53,3.47-1.62s-.81-1.71-2.41-1.71c-1.79,0-2.66.64-2.77,2.02h-3.39c.11-2.52,1.99-4.73,6.19-4.73s6.05,1.93,6.05,5.29v7.31c0,1.09.17,1.74.5,1.99v.14h-3.67c-.22-.28-.36-.95-.45-1.6ZM781.74,232.66v-2.16c-.67.39-1.71.62-2.66.84-1.99.45-2.97.9-2.97,2.24s.9,1.82,2.24,1.82c2.18,0,3.39-1.34,3.39-2.74Z"/>
        <path class="cls-1" d="M787.03,230.56c0-4.28,2.8-7.59,7.17-7.59,3.72,0,6.02,2.16,6.52,5.26h-3.72c-.25-1.26-1.23-2.21-2.63-2.21-2.3,0-3.47,1.76-3.47,4.54s1.09,4.54,3.42,4.54c1.54,0,2.63-.81,2.88-2.44h3.67c-.25,3.05-2.63,5.49-6.47,5.49-4.54,0-7.36-3.3-7.36-7.59Z"/>
      </g>
      <g>
        <path class="cls-1" d="M555.22,386.99h4.06v16.63h9.41v3.39h-13.47v-20.02Z"/>
        <path class="cls-1" d="M579.3,405.42h-.06c-.73,1.09-1.76,1.93-4.23,1.93-2.94,0-5.01-1.54-5.01-4.4,0-3.16,2.58-4.17,5.77-4.62,2.38-.34,3.47-.53,3.47-1.62s-.81-1.71-2.41-1.71c-1.79,0-2.66.64-2.77,2.02h-3.39c.11-2.52,1.99-4.73,6.19-4.73s6.05,1.93,6.05,5.29v7.31c0,1.09.17,1.74.5,1.99v.14h-3.67c-.22-.28-.36-.95-.45-1.6ZM579.33,401.95v-2.16c-.67.39-1.71.62-2.66.84-1.99.45-2.97.9-2.97,2.24s.9,1.82,2.24,1.82c2.18,0,3.39-1.34,3.39-2.74Z"/>
        <path class="cls-1" d="M590.75,400.46l-1.65,1.71v4.84h-3.78v-20.02h3.78v11.09l5.1-5.43h4.56l-5.29,5.46,5.94,8.9h-4.62l-4.03-6.55Z"/>
        <path class="cls-1" d="M599.49,392.65h1.99v-4.48h3.72v4.48h2.46v2.52h-2.46v7.62c0,1.06.59,1.43,1.43,1.43.48,0,1.12-.03,1.12-.03v2.8s-.87.06-2.38.06c-1.85,0-3.89-.73-3.89-3.44v-8.43h-1.99v-2.52Z"/>
        <path class="cls-1" d="M618.36,405.42h-.06c-.73,1.09-1.76,1.93-4.23,1.93-2.94,0-5.01-1.54-5.01-4.4,0-3.16,2.58-4.17,5.77-4.62,2.38-.34,3.47-.53,3.47-1.62s-.81-1.71-2.41-1.71c-1.79,0-2.66.64-2.77,2.02h-3.39c.11-2.52,1.99-4.73,6.19-4.73s6.05,1.93,6.05,5.29v7.31c0,1.09.17,1.74.5,1.99v.14h-3.67c-.22-.28-.36-.95-.45-1.6ZM618.38,401.95v-2.16c-.67.39-1.71.62-2.66.84-1.99.45-2.97.9-2.97,2.24s.9,1.82,2.24,1.82c2.18,0,3.39-1.34,3.39-2.74Z"/>
        <path class="cls-1" d="M623.48,402.37h3.53c.25,1.65,1.43,2.38,3.14,2.38s2.63-.64,2.63-1.65c0-1.37-1.82-1.51-3.78-1.9-2.58-.5-5.1-1.2-5.1-4.34s2.58-4.59,5.85-4.59c3.78,0,5.88,1.88,6.16,4.76h-3.44c-.17-1.54-1.15-2.1-2.77-2.1-1.48,0-2.46.56-2.46,1.6,0,1.23,1.9,1.34,3.95,1.76,2.41.5,5.07,1.18,5.07,4.54,0,2.88-2.46,4.62-6.05,4.62-4.17,0-6.5-2.02-6.72-5.07ZM625.24,387.36h3.3l1.34,1.93h.06l1.37-1.93h3.33l-2.63,3.53h-4.09l-2.69-3.53Z"/>
        <path class="cls-1" d="M637.96,386.99h3.81v3.42h-3.81v-3.42ZM637.96,392.65h3.81v14.36h-3.81v-14.36Z"/>
      </g>
    </g>
  </g>
</svg>