<?xml version="1.0" encoding="UTF-8"?>
<svg id="Layer_2" data-name="Layer 2" xmlns="http://www.w3.org/2000/svg" viewBox="0 0 371.69 66.96">
  <defs>
    <style>
      .cls-1 {
        fill: #da6d5d;
      }

      .cls-2 {
        fill: #a65262;
      }

      .cls-3 {
        fill: #dc6d5d;
      }
    </style>
  </defs>
  <g id="Layer_2-2" data-name="Layer 2">
    <g>
      <path class="cls-2" d="M0,19.62h5.94V4.77h16.65v14.85h8.73v10.26h-8.73v18.63c0,4.59,3.24,4.68,8.55,4.32v12.51c-2.61.63-5.31,1.08-8.37,1.08-11.16,0-16.83-3.15-16.83-14.13v-22.41H0v-10.26Z"/>
      <path class="cls-2" d="M35.73,1.17h17.01v12.87h-17.01V1.17ZM35.73,19.62h17.01v45.9h-17.01V19.62Z"/>
      <path class="cls-2" d="M75.06,26.55h.27c3.69-5.76,8.1-7.92,13.95-7.92,1.35,0,2.25.18,2.79.45v14.49h-.36c-9.99-1.71-15.84,2.79-15.84,13.14v18.81h-17.01V19.62h16.2v6.93Z"/>
      <path class="cls-2" d="M126.72,65.52v-5.94h-.27c-3.51,4.77-8.01,7.38-14.31,7.38-10.98,0-16.38-7.2-16.38-17.73v-29.61h17.01v25.56c0,4.77,2.07,7.29,6.12,7.29,4.41,0,7.02-3.15,7.02-8.1v-24.75h17.01v45.9h-16.2Z"/>
      <path class="cls-2" d="M148.59,35.28h24.57v14.67h-24.57v-14.67Z"/>
      <path class="cls-3" d="M195.03,26.55h.27c3.69-5.76,8.1-7.92,13.95-7.92,1.35,0,2.25.18,2.79.45v14.49h-.36c-9.99-1.71-15.84,2.79-15.84,13.14v18.81h-17.01V19.62h16.2v6.93Z"/>
      <path class="cls-3" d="M216.08,1.17h17.01v12.87h-17.01V1.17ZM216.08,19.62h17.01v45.9h-17.01V19.62Z"/>
      <path class="cls-3" d="M255.41,26.55h.27c3.69-5.76,8.1-7.92,13.95-7.92,1.35,0,2.25.18,2.79.45v14.49h-.36c-9.99-1.71-15.84,2.79-15.84,13.14v18.81h-17.01V19.62h16.2v6.93Z"/>
      <path class="cls-3" d="M307.07,65.52v-5.94h-.27c-3.51,4.77-8.01,7.38-14.31,7.38-10.98,0-16.38-7.2-16.38-17.73v-29.61h17.01v25.56c0,4.77,2.07,7.29,6.12,7.29,4.41,0,7.02-3.15,7.02-8.1v-24.75h17.01v45.9h-16.2Z"/>
      <path class="cls-1" d="M328.67,21.78c0-12.51,9.45-21.78,21.51-21.78s21.51,9.27,21.51,21.78-9.45,21.78-21.51,21.78-21.51-9.27-21.51-21.78ZM367.73,21.78c0-10.53-7.38-18.36-17.55-18.36s-17.55,7.83-17.55,18.36,7.47,18.45,17.55,18.45,17.55-7.83,17.55-18.45ZM341,10.08h11.16c4.5,0,8.28,2.43,8.28,6.75,0,2.61-1.35,4.59-3.96,5.49v.18c2.16.63,2.97,1.98,3.42,4.14.54,2.88.18,5.58,1.08,6.03v.45h-6.12c-.63-.36-.72-3.06-.99-5.31-.18-2.07-1.35-3.06-3.6-3.06h-3.06v8.37h-6.21V10.08ZM347.21,20.25h3.87c2.16,0,3.24-.9,3.24-2.61s-.99-2.61-3.24-2.61h-3.87v5.22Z"/>
    </g>
  </g>
</svg>